Commissioner-HairWedge.ufo
<glyph name="ampersand" format="2">
  <advance width="710"/>
  <unicode hex="0026"/>
  <outline>
    <contour>
      <point x="640" y="0" type="curve"/>
      <point x="690" y="0" type="line"/>
      <point x="635" y="52"/>
      <point x="580" y="105"/>
      <point x="524" y="158" type="curve"/>
      <point x="284" y="391" type="line" smooth="yes"/>
      <point x="215" y="458"/>
      <point x="183" y="503"/>
      <point x="183" y="565" type="curve" smooth="yes"/>
      <point x="183" y="637"/>
      <point x="227" y="692"/>
      <point x="304" y="694" type="curve"/>
      <point x="371" y="692"/>
      <point x="418" y="649"/>
      <point x="418" y="575" type="curve" smooth="yes"/>
      <point x="418" y="512"/>
      <point x="344" y="462"/>
      <point x="263" y="407" type="curve"/>
      <point x="282" y="384" type="line"/>
      <point x="360" y="437"/>
      <point x="449" y="496"/>
      <point x="449" y="575" type="curve" smooth="yes"/>
      <point x="449" y="668"/>
      <point x="383" y="725"/>
      <point x="304" y="725" type="curve" smooth="yes"/>
      <point x="220" y="725"/>
      <point x="152" y="661"/>
      <point x="152" y="565" type="curve" smooth="yes"/>
      <point x="152" y="489"/>
      <point x="194" y="435"/>
      <point x="262" y="369" type="curve" smooth="yes"/>
      <point x="502" y="136" type="line"/>
      <point x="548" y="91"/>
      <point x="595" y="44"/>
    </contour>
    <contour>
      <point x="276" y="-9" type="curve" smooth="yes"/>
      <point x="336" y="-9"/>
      <point x="403" y="38"/>
      <point x="507" y="126" type="curve"/>
      <point x="519" y="126" type="line"/>
      <point x="517" y="137" type="line"/>
      <point x="492" y="154" type="line"/>
      <point x="385" y="61"/>
      <point x="323" y="22"/>
      <point x="276" y="22" type="curve"/>
      <point x="157" y="24"/>
      <point x="91" y="84"/>
      <point x="91" y="181" type="curve" smooth="yes"/>
      <point x="91" y="281"/>
      <point x="167" y="340"/>
      <point x="263" y="384" type="curve"/>
      <point x="248" y="410" type="line"/>
      <point x="161" y="370"/>
      <point x="60" y="303"/>
      <point x="60" y="181" type="curve" smooth="yes"/>
      <point x="60" y="78"/>
      <point x="132" y="-9"/>
    </contour>
    <contour>
      <point x="528" y="148" type="line"/>
      <point x="569" y="211"/>
      <point x="609" y="272"/>
      <point x="650" y="335" type="curve"/>
      <point x="618" y="353" type="line"/>
      <point x="580" y="290"/>
      <point x="544" y="232"/>
      <point x="504" y="166" type="curve"/>
    </contour>
  </outline>
</glyph>
<glyph name="asterisk" format="2">
  <advance width="458"/>
  <unicode hex="002A"/>
  <outline>
    <contour>
      <point x="410" y="385" type="curve"/>
      <point x="429" y="415" type="line"/>
      <point x="365" y="453"/>
      <point x="300" y="491"/>
      <point x="236" y="529" type="curve"/>
      <point x="173" y="571"/>
      <point x="110" y="612"/>
      <point x="48" y="653" type="curve"/>
      <point x="29" y="623" type="line"/>
      <point x="93" y="585"/>
      <point x="158" y="547"/>
      <point x="223" y="508" type="curve"/>
      <point x="285" y="467"/>
      <point x="348" y="426"/>
    </contour>
    <contour>
      <point x="48" y="385" type="line"/>
      <point x="110" y="426"/>
      <point x="173" y="467"/>
      <point x="236" y="509" type="curve"/>
      <point x="300" y="547"/>
      <point x="365" y="585"/>
      <point x="429" y="623" type="curve"/>
      <point x="410" y="653" type="line"/>
      <point x="348" y="612"/>
      <point x="285" y="571"/>
      <point x="223" y="530" type="curve"/>
      <point x="158" y="491"/>
      <point x="93" y="453"/>
      <point x="29" y="415" type="curve"/>
    </contour>
    <contour>
      <point x="211" y="294" type="curve"/>
      <point x="247" y="294" type="line"/>
      <point x="245" y="369"/>
      <point x="243" y="444"/>
      <point x="241" y="520" type="curve"/>
      <point x="243" y="594"/>
      <point x="245" y="669"/>
      <point x="247" y="744" type="curve"/>
      <point x="211" y="744" type="line"/>
      <point x="213" y="669"/>
      <point x="215" y="594"/>
      <point x="217" y="520" type="curve"/>
      <point x="215" y="444"/>
      <point x="213" y="369"/>
    </contour>
  </outline>
</glyph>
<glyph name="one" format="2">
  <advance width="408"/>
  <unicode hex="0031"/>
  <outline>
    <contour>
      <point x="50" y="523" type="line"/>
      <point x="122" y="566"/>
      <point x="195" y="609"/>
      <point x="267" y="652" type="curve"/>
      <point x="267" y="686" type="line"/>
      <point x="191" y="643"/>
      <point x="115" y="601"/>
      <point x="39" y="558" type="curve"/>
    </contour>
    <contour>
      <point x="251" y="0" type="curve"/>
      <point x="286" y="0" type="line"/>
      <point x="285" y="75"/>
      <point x="284" y="140"/>
      <point x="283" y="221" type="curve"/>
      <point x="283" y="447" type="line"/>
      <point x="284" y="532"/>
      <point x="285" y="612"/>
      <point x="286" y="684" type="curve"/>
      <point x="267" y="686" type="line"/>
      <point x="252" y="668" type="line"/>
      <point x="252" y="594"/>
      <point x="253" y="510"/>
      <point x="253" y="447" type="curve"/>
      <point x="253" y="221" type="line"/>
      <point x="252" y="140"/>
      <point x="252" y="75"/>
    </contour>
  </outline>
</glyph>
<glyph name="seven" format="2">
  <advance width="511"/>
  <unicode hex="0037"/>
  <outline>
    <contour>
      <point x="123" y="0" type="curve"/>
      <point x="163" y="0" type="line"/>
      <point x="202" y="86"/>
      <point x="241" y="173"/>
      <point x="279" y="257" type="curve"/>
      <point x="347" y="403" type="line"/>
      <point x="388" y="492"/>
      <point x="426" y="573"/>
      <point x="466" y="658" type="curve"/>
      <point x="466" y="684" type="line"/>
      <point x="25" y="684" type="line"/>
      <point x="25" y="651" type="line"/>
      <point x="114" y="652"/>
      <point x="203" y="653"/>
      <point x="291" y="654" type="curve"/>
      <point x="440" y="654" type="line"/>
      <point x="432" y="664" type="line"/>
      <point x="407" y="610"/>
      <point x="383" y="557"/>
      <point x="359" y="503" type="curve"/>
      <point x="257" y="284" type="line"/>
      <point x="213" y="191"/>
      <point x="168" y="95"/>
    </contour>
  </outline>
</glyph>
<glyph name="less" format="2">
  <advance width="560"/>
  <unicode hex="003C"/>
  <outline>
    <contour>
      <point x="490" y="86" type="curve"/>
      <point x="490" y="125" type="line"/>
      <point x="411" y="159"/>
      <point x="324" y="197"/>
      <point x="243" y="232" type="curve"/>
      <point x="112" y="291" type="line"/>
      <point x="112" y="297" type="line"/>
      <point x="243" y="356" type="line"/>
      <point x="324" y="391"/>
      <point x="411" y="429"/>
      <point x="490" y="463" type="curve"/>
      <point x="490" y="502" type="line"/>
      <point x="432" y="475"/>
      <point x="374" y="448"/>
      <point x="329" y="427" type="curve"/>
      <point x="229" y="382" type="line"/>
      <point x="181" y="361"/>
      <point x="127" y="337"/>
      <point x="70" y="312" type="curve"/>
      <point x="70" y="276" type="line"/>
      <point x="127" y="252"/>
      <point x="183" y="227"/>
      <point x="229" y="206" type="curve"/>
      <point x="329" y="161" type="line"/>
      <point x="376" y="139"/>
      <point x="434" y="112"/>
    </contour>
  </outline>
</glyph>
<glyph name="equal" format="2">
  <advance width="560"/>
  <unicode hex="003D"/>
  <outline>
    <contour>
      <point x="70" y="173" type="line"/>
      <point x="128" y="174"/>
      <point x="195" y="175"/>
      <point x="230" y="175" type="curve"/>
      <point x="330" y="175" type="line"/>
      <point x="365" y="175"/>
      <point x="432" y="174"/>
      <point x="490" y="173" type="curve"/>
      <point x="490" y="207" type="line"/>
      <point x="432" y="206"/>
      <point x="365" y="205"/>
      <point x="330" y="205" type="curve"/>
      <point x="230" y="205" type="line"/>
      <point x="195" y="205"/>
      <point x="128" y="206"/>
      <point x="70" y="207" type="curve"/>
    </contour>
    <contour>
      <point x="70" y="383" type="line"/>
      <point x="128" y="384"/>
      <point x="195" y="385"/>
      <point x="230" y="385" type="curve"/>
      <point x="330" y="385" type="line"/>
      <point x="365" y="385"/>
      <point x="432" y="384"/>
      <point x="490" y="383" type="curve"/>
      <point x="490" y="417" type="line"/>
      <point x="432" y="416"/>
      <point x="365" y="415"/>
      <point x="330" y="415" type="curve"/>
      <point x="230" y="415" type="line"/>
      <point x="195" y="415"/>
      <point x="128" y="416"/>
      <point x="70" y="417" type="curve"/>
    </contour>
  </outline>
</glyph>
<glyph name="at" format="2">
  <advance width="875"/>
  <unicode hex="0040"/>
  <outline>
    <contour>
      <point x="470" y="-122" type="curve" smooth="yes"/>
      <point x="534" y="-122"/>
      <point x="661" y="-77"/>
      <point x="752" y="-46" type="curve"/>
      <point x="752" y="-9" type="line"/>
      <point x="641" y="-51"/>
      <point x="521" y="-89"/>
      <point x="470" y="-91" type="curve"/>
      <point x="183" y="-88"/>
      <point x="55" y="117"/>
      <point x="100" y="333" type="curve" smooth="yes"/>
      <point x="144" y="543"/>
      <point x="291" y="626"/>
      <point x="465" y="629" type="curve"/>
      <point x="690" y="626"/>
      <point x="816" y="455"/>
      <point x="777" y="248" type="curve" smooth="yes"/>
      <point x="769" y="206"/>
      <point x="670" y="93"/>
      <point x="636" y="93" type="curve"/>
      <point x="580" y="96"/>
      <point x="556" y="125"/>
      <point x="569" y="190" type="curve"/>
      <point x="602" y="349" type="line"/>
      <point x="612" y="386"/>
      <point x="625" y="434"/>
      <point x="637" y="478" type="curve"/>
      <point x="605" y="475" type="line"/>
      <point x="590" y="418" type="line"/>
      <point x="585" y="418" type="line"/>
      <point x="550" y="447"/>
      <point x="488" y="484"/>
      <point x="443" y="484" type="curve" smooth="yes"/>
      <point x="349" y="484"/>
      <point x="275" y="415"/>
      <point x="251" y="300" type="curve" smooth="yes"/>
      <point x="226" y="182"/>
      <point x="272" y="73"/>
      <point x="393" y="73" type="curve" smooth="yes"/>
      <point x="427" y="73"/>
      <point x="485" y="105"/>
      <point x="530" y="145" type="curve"/>
      <point x="535" y="145" type="line"/>
      <point x="542" y="104"/>
      <point x="568" y="63"/>
      <point x="643" y="63" type="curve" smooth="yes"/>
      <point x="678" y="63"/>
      <point x="795" y="178"/>
      <point x="807" y="242" type="curve" smooth="yes"/>
      <point x="850" y="469"/>
      <point x="704" y="660"/>
      <point x="466" y="660" type="curve" smooth="yes"/>
      <point x="276" y="660"/>
      <point x="114" y="559"/>
      <point x="69" y="337" type="curve" smooth="yes"/>
      <point x="22" y="107"/>
      <point x="165" y="-122"/>
    </contour>
    <contour>
      <point x="397" y="103" type="curve"/>
      <point x="296" y="105"/>
      <point x="259" y="188"/>
      <point x="282" y="297" type="curve" smooth="yes"/>
      <point x="301" y="386"/>
      <point x="354" y="451"/>
      <point x="445" y="453" type="curve"/>
      <point x="483" y="452"/>
      <point x="540" y="421"/>
      <point x="580" y="388" type="curve"/>
      <point x="538" y="194" type="line"/>
      <point x="491" y="140"/>
      <point x="429" y="105"/>
    </contour>
  </outline>
</glyph>
<glyph name="A" format="2">
  <advance width="668"/>
  <unicode hex="0041"/>
  <anchor x="334" y="0" name="bottom"/>
  <anchor x="636" y="0" name="ogonek"/>
  <anchor x="334" y="713" name="top"/>
  <outline>
    <contour>
      <point x="31" y="0" type="curve"/>
      <point x="73" y="0" type="line"/>
      <point x="107" y="90"/>
      <point x="144" y="187"/>
      <point x="177" y="275" type="curve"/>
      <point x="333" y="677" type="line"/>
      <point x="339" y="677" type="line"/>
      <point x="494" y="272" type="line"/>
      <point x="525" y="188"/>
      <point x="561" y="89"/>
      <point x="594" y="0" type="curve"/>
      <point x="636" y="0" type="line"/>
      <point x="606" y="76"/>
      <point x="572" y="161"/>
      <point x="540" y="241" type="curve"/>
      <point x="446" y="487" type="line"/>
      <point x="414" y="574"/>
      <point x="389" y="642"/>
      <point x="363" y="713" type="curve"/>
      <point x="309" y="713" type="line"/>
      <point x="282" y="640"/>
      <point x="258" y="576"/>
      <point x="225" y="487" type="curve"/>
      <point x="130" y="242" type="line"/>
      <point x="99" y="166"/>
      <point x="63" y="78"/>
    </contour>
    <contour>
      <point x="137" y="203" type="line"/>
      <point x="532" y="203" type="line"/>
      <point x="532" y="233" type="line"/>
      <point x="137" y="233" type="line"/>
    </contour>
  </outline>
</glyph>
<glyph name="B" format="2">
  <advance width="633"/>
  <unicode hex="0042"/>
  <outline>
    <contour>
      <point x="310" y="-1" type="curve"/>
      <point x="516" y="-1"/>
      <point x="584" y="87"/>
      <point x="584" y="193" type="curve" smooth="yes"/>
      <point x="584" y="307"/>
      <point x="506" y="352"/>
      <point x="442" y="363" type="curve"/>
      <point x="442" y="369" type="line"/>
      <point x="511" y="394"/>
      <point x="563" y="451"/>
      <point x="563" y="542" type="curve" smooth="yes"/>
      <point x="563" y="650"/>
      <point x="494" y="714"/>
      <point x="352" y="714" type="curve"/>
      <point x="263" y="714"/>
      <point x="182" y="713"/>
      <point x="108" y="713" type="curve"/>
      <point x="109" y="632"/>
      <point x="109" y="562"/>
      <point x="110" y="475" type="curve"/>
      <point x="110" y="238" type="line"/>
      <point x="109" y="151"/>
      <point x="109" y="81"/>
      <point x="108" y="0" type="curve"/>
      <point x="175" y="0"/>
      <point x="216" y="-1"/>
    </contour>
    <contour>
      <point x="144" y="31" type="line"/>
      <point x="143" y="99"/>
      <point x="143" y="162"/>
      <point x="142" y="238" type="curve"/>
      <point x="142" y="475" type="line"/>
      <point x="143" y="551"/>
      <point x="143" y="614"/>
      <point x="144" y="682" type="curve"/>
      <point x="350" y="682" type="line" smooth="yes"/>
      <point x="468" y="682"/>
      <point x="530" y="642"/>
      <point x="530" y="542" type="curve" smooth="yes"/>
      <point x="530" y="458"/>
      <point x="475" y="378"/>
      <point x="335" y="378" type="curve" smooth="yes"/>
      <point x="136" y="378" type="line"/>
      <point x="136" y="348" type="line"/>
      <point x="330" y="348" type="line" smooth="yes"/>
      <point x="468" y="348"/>
      <point x="551" y="306"/>
      <point x="551" y="193" type="curve" smooth="yes"/>
      <point x="551" y="94"/>
      <point x="487" y="31"/>
      <point x="311" y="31" type="curve" smooth="yes"/>
    </contour>
  </outline>
</glyph>
<glyph name="M" format="2">
  <advance width="950"/>
  <unicode hex="004D"/>
  <anchor x="475" y="0" name="bottom"/>
  <anchor x="475" y="713" name="top"/>
  <outline>
    <contour>
      <point x="76" y="0" type="curve"/>
      <point x="115" y="0" type="line"/>
      <point x="132" y="149"/>
      <point x="147" y="281"/>
      <point x="160" y="396" type="curve"/>
      <point x="190" y="644" type="line"/>
      <point x="193" y="644" type="line"/>
      <point x="306" y="374" type="line"/>
      <point x="358" y="248"/>
      <point x="417" y="104"/>
      <point x="460" y="0" type="curve"/>
      <point x="491" y="0" type="line"/>
      <point x="537" y="112"/>
      <point x="592" y="245"/>
      <point x="646" y="376" type="curve"/>
      <point x="759" y="644" type="line"/>
      <point x="762" y="644" type="line"/>
      <point x="792" y="396" type="line"/>
      <point x="805" y="280"/>
      <point x="820" y="146"/>
      <point x="836" y="0" type="curve"/>
      <point x="874" y="0" type="line"/>
      <point x="864" y="81"/>
      <point x="854" y="152"/>
      <point x="843" y="238" type="curve"/>
      <point x="815" y="473" type="line"/>
      <point x="805" y="561"/>
      <point x="797" y="632"/>
      <point x="788" y="713" type="curve"/>
      <point x="749" y="713" type="line"/>
      <point x="702" y="597"/>
      <point x="657" y="486"/>
      <point x="613" y="378" type="curve"/>
      <point x="478" y="55" type="line"/>
      <point x="474" y="55" type="line"/>
      <point x="339" y="378" type="line"/>
      <point x="295" y="487"/>
      <point x="250" y="597"/>
      <point x="203" y="713" type="curve"/>
      <point x="163" y="713" type="line"/>
      <point x="154" y="630"/>
      <point x="146" y="556"/>
      <point x="137" y="473" type="curve"/>
      <point x="108" y="238" type="line"/>
      <point x="96" y="151"/>
      <point x="87" y="81"/>
    </contour>
  </outline>
</glyph>
<glyph name="N" format="2">
  <advance width="758"/>
  <unicode hex="004E"/>
  <anchor x="379" y="0" name="bottom"/>
  <anchor x="379" y="713" name="top"/>
  <outline>
    <contour>
      <point x="108" y="0" type="curve"/>
      <point x="145" y="0" type="line"/>
      <point x="144" y="81"/>
      <point x="143" y="151"/>
      <point x="142" y="238" type="curve"/>
      <point x="142" y="655" type="line"/>
      <point x="146" y="655" type="line"/>
      <point x="331" y="396" type="line"/>
      <point x="441" y="241"/>
      <point x="530" y="116"/>
      <point x="613" y="0" type="curve"/>
      <point x="650" y="0" type="line"/>
      <point x="649" y="81"/>
      <point x="648" y="151"/>
      <point x="647" y="238" type="curve"/>
      <point x="647" y="475" type="line"/>
      <point x="648" y="562"/>
      <point x="649" y="632"/>
      <point x="650" y="713" type="curve"/>
      <point x="613" y="713" type="line"/>
      <point x="614" y="632"/>
      <point x="614" y="562"/>
      <point x="615" y="475" type="curve"/>
      <point x="615" y="62" type="line"/>
      <point x="611" y="62" type="line"/>
      <point x="426" y="319" type="line"/>
      <point x="336" y="446"/>
      <point x="244" y="575"/>
      <point x="146" y="713" type="curve"/>
      <point x="108" y="713" type="line"/>
      <point x="109" y="632"/>
      <point x="109" y="562"/>
      <point x="110" y="475" type="curve"/>
      <point x="110" y="238" type="line"/>
      <point x="109" y="151"/>
      <point x="109" y="81"/>
    </contour>
  </outline>
</glyph>
<glyph name="X" format="2">
  <advance width="659"/>
  <unicode hex="0058"/>
  <outline>
    <contour>
      <point x="42" y="0" type="curve"/>
      <point x="88" y="0" type="line"/>
      <point x="136" y="70"/>
      <point x="176" y="129"/>
      <point x="217" y="190" type="curve"/>
      <point x="317" y="335" type="line"/>
      <point x="323" y="335" type="line"/>
      <point x="430" y="191" type="line"/>
      <point x="473" y="132"/>
      <point x="518" y="70"/>
      <point x="569" y="0" type="curve"/>
      <point x="617" y="0" type="line"/>
      <point x="559" y="76"/>
      <point x="508" y="142"/>
      <point x="449" y="219" type="curve"/>
      <point x="334" y="374" type="line"/>
      <point x="334" y="357" type="line"/>
      <point x="445" y="515" type="line"/>
      <point x="486" y="572"/>
      <point x="535" y="640"/>
      <point x="588" y="713" type="curve"/>
      <point x="541" y="713" type="line"/>
      <point x="494" y="645"/>
      <point x="446" y="575"/>
      <point x="404" y="513" type="curve"/>
      <point x="321" y="394" type="line"/>
      <point x="315" y="394" type="line"/>
      <point x="230" y="512" type="line"/>
      <point x="188" y="572"/>
      <point x="140" y="641"/>
      <point x="90" y="713" type="curve"/>
      <point x="43" y="713" type="line"/>
      <point x="102" y="633"/>
      <point x="150" y="567"/>
      <point x="199" y="501" type="curve"/>
      <point x="304" y="355" type="line"/>
      <point x="304" y="372" type="line"/>
      <point x="184" y="199" type="line"/>
      <point x="133" y="128"/>
      <point x="87" y="63"/>
    </contour>
  </outline>
</glyph>
<glyph name="a" format="2">
  <advance width="516"/>
  <unicode hex="0061"/>
  <anchor x="263" y="0" name="bottom"/>
  <anchor x="426" y="0" name="ogonek"/>
  <anchor x="263" y="494" name="top"/>
  <outline>
    <contour>
      <point x="216" y="-9" type="curve" smooth="yes"/>
      <point x="267" y="-9"/>
      <point x="340" y="38"/>
      <point x="396" y="83" type="curve"/>
      <point x="402" y="83" type="line"/>
      <point x="423" y="0" type="line"/>
      <point x="456" y="0" type="line"/>
      <point x="443" y="46"/>
      <point x="435" y="79"/>
      <point x="425" y="121" type="curve"/>
      <point x="425" y="211" type="line" smooth="yes"/>
      <point x="425" y="257"/>
      <point x="427" y="306"/>
      <point x="427" y="334" type="curve" smooth="yes"/>
      <point x="427" y="453"/>
      <point x="364" y="504"/>
      <point x="265" y="504" type="curve" smooth="yes"/>
      <point x="228" y="504"/>
      <point x="131" y="479"/>
      <point x="87" y="467" type="curve"/>
      <point x="90" y="431" type="line"/>
      <point x="165" y="454"/>
      <point x="243" y="472"/>
      <point x="265" y="472" type="curve" smooth="yes"/>
      <point x="339" y="472"/>
      <point x="401" y="450"/>
      <point x="396" y="312" type="curve"/>
      <point x="223" y="276" type="line" smooth="yes"/>
      <point x="154" y="262"/>
      <point x="65" y="231"/>
      <point x="65" y="127" type="curve" smooth="yes"/>
      <point x="65" y="46"/>
      <point x="120" y="-9"/>
    </contour>
    <contour>
      <point x="216" y="22" type="curve" smooth="yes"/>
      <point x="146" y="22"/>
      <point x="96" y="52"/>
      <point x="96" y="128" type="curve" smooth="yes"/>
      <point x="96" y="205"/>
      <point x="160" y="234"/>
      <point x="235" y="248" type="curve" smooth="yes"/>
      <point x="348" y="269"/>
      <point x="377" y="280"/>
      <point x="396" y="289" type="curve"/>
      <point x="395" y="123" type="line"/>
      <point x="333" y="64"/>
      <point x="258" y="22"/>
    </contour>
  </outline>
</glyph>
<glyph name="c" format="2">
  <advance width="502"/>
  <unicode hex="0063"/>
  <anchor x="290" y="0" name="bottom"/>
  <anchor x="281" y="494" name="top"/>
  <outline>
    <contour>
      <point x="304" y="-9" type="curve" smooth="yes"/>
      <point x="337" y="-9"/>
      <point x="406" y="11"/>
      <point x="449" y="27" type="curve"/>
      <point x="442" y="63" type="line"/>
      <point x="392" y="40"/>
      <point x="326" y="23"/>
      <point x="304" y="23" type="curve"/>
      <point x="162" y="26"/>
      <point x="93" y="122"/>
      <point x="93" y="248" type="curve" smooth="yes"/>
      <point x="93" y="385"/>
      <point x="173" y="469"/>
      <point x="296" y="472" type="curve"/>
      <point x="314" y="472"/>
      <point x="379" y="454"/>
      <point x="441" y="431" type="curve"/>
      <point x="446" y="467" type="line"/>
      <point x="408" y="479"/>
      <point x="326" y="504"/>
      <point x="295" y="504" type="curve" smooth="yes"/>
      <point x="150" y="504"/>
      <point x="62" y="393"/>
      <point x="62" y="248" type="curve" smooth="yes"/>
      <point x="62" y="104"/>
      <point x="149" y="-9"/>
    </contour>
  </outline>
</glyph>
<glyph name="h" format="2">
  <advance width="568"/>
  <unicode hex="0068"/>
  <guideline x="102" y="731" angle="15.2551"/>
  <anchor x="289" y="0" name="bottom"/>
  <anchor x="289" y="409" name="center"/>
  <anchor x="272" y="723" name="top"/>
  <outline>
    <contour>
      <point x="102" y="0" type="curve"/>
      <point x="137" y="0" type="line"/>
      <point x="136" y="75"/>
      <point x="135" y="140"/>
      <point x="134" y="221" type="curve"/>
      <point x="134" y="351" type="line"/>
      <point x="202" y="421"/>
      <point x="282" y="472"/>
      <point x="325" y="472" type="curve" smooth="yes"/>
      <point x="418" y="472"/>
      <point x="448" y="422"/>
      <point x="448" y="326" type="curve"/>
      <point x="448" y="221" type="line"/>
      <point x="447" y="140"/>
      <point x="447" y="75"/>
      <point x="446" y="0" type="curve"/>
      <point x="481" y="0" type="line"/>
      <point x="480" y="75"/>
      <point x="479" y="140"/>
      <point x="478" y="221" type="curve"/>
      <point x="478" y="247"/>
      <point x="479" y="283"/>
      <point x="479" y="326" type="curve" smooth="yes"/>
      <point x="479" y="440"/>
      <point x="437" y="504"/>
      <point x="326" y="504" type="curve" smooth="yes"/>
      <point x="266" y="504"/>
      <point x="181" y="437"/>
      <point x="140" y="399" type="curve"/>
      <point x="134" y="399" type="line"/>
      <point x="134" y="494" type="line"/>
      <point x="135" y="579"/>
      <point x="136" y="658"/>
      <point x="137" y="740" type="curve"/>
      <point x="98" y="729" type="line"/>
      <point x="100" y="657"/>
      <point x="102" y="579"/>
      <point x="104" y="494" type="curve"/>
      <point x="104" y="221" type="line"/>
      <point x="103" y="140"/>
      <point x="103" y="75"/>
    </contour>
  </outline>
</glyph>
<glyph name="k" format="2">
  <advance width="516"/>
  <unicode hex="006B"/>
  <anchor x="268" y="0" name="bottom"/>
  <anchor x="268" y="723" name="top"/>
  <outline>
    <contour>
      <point x="437" y="0" type="curve"/>
      <point x="492" y="0" type="line"/>
      <point x="421" y="57"/>
      <point x="352" y="113"/>
      <point x="281" y="170" type="curve"/>
      <point x="171" y="259" type="line"/>
      <point x="171" y="240" type="line"/>
      <point x="268" y="323" type="line"/>
      <point x="337" y="380"/>
      <point x="402" y="436"/>
      <point x="472" y="494" type="curve"/>
      <point x="419" y="494" type="line"/>
      <point x="363" y="445"/>
      <point x="306" y="395"/>
      <point x="250" y="346" type="curve"/>
      <point x="157" y="266" type="line"/>
      <point x="127" y="266" type="line"/>
      <point x="127" y="238" type="line"/>
      <point x="150" y="238" type="line"/>
      <point x="263" y="147" type="line"/>
      <point x="321" y="98"/>
      <point x="379" y="49"/>
    </contour>
    <contour>
      <point x="102" y="0" type="curve"/>
      <point x="137" y="0" type="line"/>
      <point x="136" y="75"/>
      <point x="135" y="140"/>
      <point x="134" y="221" type="curve"/>
      <point x="134" y="494" type="line"/>
      <point x="135" y="579"/>
      <point x="136" y="658"/>
      <point x="137" y="740" type="curve"/>
      <point x="98" y="729" type="line"/>
      <point x="100" y="657"/>
      <point x="102" y="579"/>
      <point x="104" y="494" type="curve"/>
      <point x="104" y="221" type="line"/>
      <point x="103" y="140"/>
      <point x="103" y="75"/>
    </contour>
  </outline>
</glyph>
<glyph name="l" format="2">
  <advance width="238"/>
  <unicode hex="006C"/>
  <anchor x="119" y="0" name="bottom"/>
  <anchor x="119" y="409" name="center"/>
  <anchor x="119" y="723" name="top"/>
  <anchor x="194" y="494" name="topright"/>
  <outline>
    <contour>
      <point x="102" y="0" type="curve"/>
      <point x="137" y="0" type="line"/>
      <point x="136" y="75"/>
      <point x="135" y="140"/>
      <point x="134" y="221" type="curve"/>
      <point x="134" y="494" type="line"/>
      <point x="135" y="579"/>
      <point x="136" y="658"/>
      <point x="137" y="740" type="curve"/>
      <point x="98" y="729" type="line"/>
      <point x="100" y="657"/>
      <point x="102" y="579"/>
      <point x="104" y="494" type="curve"/>
      <point x="104" y="221" type="line"/>
      <point x="103" y="140"/>
      <point x="103" y="75"/>
    </contour>
  </outline>
</glyph>
<glyph name="m" format="2">
  <advance width="877"/>
  <unicode hex="006D"/>
  <anchor x="451" y="0" name="bottom"/>
  <anchor x="451" y="494" name="top"/>
  <outline>
    <contour>
      <point x="108" y="0" type="curve"/>
      <point x="143" y="0" type="line"/>
      <point x="142" y="75"/>
      <point x="141" y="140"/>
      <point x="140" y="221" type="curve"/>
      <point x="140" y="351" type="line"/>
      <point x="208" y="421"/>
      <point x="278" y="472"/>
      <point x="320" y="472" type="curve" smooth="yes"/>
      <point x="408" y="472"/>
      <point x="436" y="422"/>
      <point x="436" y="326" type="curve"/>
      <point x="436" y="221" type="line"/>
      <point x="435" y="140"/>
      <point x="435" y="75"/>
      <point x="434" y="0" type="curve"/>
      <point x="469" y="0" type="line"/>
      <point x="468" y="75"/>
      <point x="467" y="140"/>
      <point x="466" y="221" type="curve"/>
      <point x="466" y="247"/>
      <point x="467" y="283"/>
      <point x="467" y="326" type="curve" smooth="yes"/>
      <point x="467" y="345"/>
      <point x="466" y="362"/>
      <point x="463" y="379" type="curve"/>
      <point x="462" y="383" type="line"/>
      <point x="450" y="462"/>
      <point x="406" y="504"/>
      <point x="322" y="504" type="curve" smooth="yes"/>
      <point x="262" y="504"/>
      <point x="187" y="437"/>
      <point x="146" y="399" type="curve"/>
      <point x="140" y="399" type="line"/>
      <point x="134" y="497" type="line"/>
      <point x="101" y="494" type="line"/>
      <point x="104" y="443"/>
      <point x="108" y="390"/>
      <point x="110" y="342" type="curve"/>
      <point x="110" y="221" type="line"/>
      <point x="109" y="140"/>
      <point x="109" y="75"/>
    </contour>
    <contour>
      <point x="755" y="0" type="curve"/>
      <point x="790" y="0" type="line"/>
      <point x="789" y="75"/>
      <point x="788" y="140"/>
      <point x="787" y="221" type="curve"/>
      <point x="787" y="247"/>
      <point x="788" y="283"/>
      <point x="788" y="326" type="curve" smooth="yes"/>
      <point x="788" y="440"/>
      <point x="746" y="504"/>
      <point x="643" y="504" type="curve" smooth="yes"/>
      <point x="583" y="504"/>
      <point x="508" y="439"/>
      <point x="464" y="396" type="curve"/>
      <point x="458" y="396" type="line"/>
      <point x="461" y="351" type="line"/>
      <point x="529" y="421"/>
      <point x="599" y="472"/>
      <point x="641" y="472" type="curve" smooth="yes"/>
      <point x="729" y="472"/>
      <point x="757" y="422"/>
      <point x="757" y="326" type="curve"/>
      <point x="757" y="221" type="line"/>
      <point x="756" y="140"/>
      <point x="756" y="75"/>
    </contour>
  </outline>
</glyph>
<glyph name="n" format="2">
  <advance width="574"/>
  <unicode hex="006E"/>
  <anchor x="294" y="0" name="bottom"/>
  <anchor x="294" y="494" name="top"/>
  <outline>
    <contour>
      <point x="108" y="0" type="curve"/>
      <point x="143" y="0" type="line"/>
      <point x="142" y="75"/>
      <point x="141" y="140"/>
      <point x="140" y="221" type="curve"/>
      <point x="140" y="351" type="line"/>
      <point x="208" y="421"/>
      <point x="288" y="472"/>
      <point x="331" y="472" type="curve" smooth="yes"/>
      <point x="424" y="472"/>
      <point x="454" y="422"/>
      <point x="454" y="326" type="curve"/>
      <point x="454" y="221" type="line"/>
      <point x="453" y="140"/>
      <point x="453" y="75"/>
      <point x="452" y="0" type="curve"/>
      <point x="487" y="0" type="line"/>
      <point x="486" y="75"/>
      <point x="485" y="140"/>
      <point x="484" y="221" type="curve"/>
      <point x="484" y="247"/>
      <point x="485" y="283"/>
      <point x="485" y="326" type="curve" smooth="yes"/>
      <point x="485" y="440"/>
      <point x="443" y="504"/>
      <point x="332" y="504" type="curve" smooth="yes"/>
      <point x="272" y="504"/>
      <point x="187" y="437"/>
      <point x="146" y="399" type="curve"/>
      <point x="140" y="399" type="line"/>
      <point x="134" y="497" type="line"/>
      <point x="101" y="494" type="line"/>
      <point x="104" y="443"/>
      <point x="108" y="390"/>
      <point x="110" y="342" type="curve"/>
      <point x="110" y="221" type="line"/>
      <point x="109" y="140"/>
      <point x="109" y="75"/>
    </contour>
  </outline>
</glyph>
<glyph name="q" format="2">
  <advance width="586"/>
  <unicode hex="0071"/>
  <outline>
    <contour>
      <point x="453" y="-194" type="curve"/>
      <point x="489" y="-192" type="line"/>
      <point x="488" y="-117"/>
      <point x="487" y="-52"/>
      <point x="486" y="29" type="curve"/>
      <point x="486" y="342" type="line"/>
      <point x="488" y="391"/>
      <point x="492" y="445"/>
      <point x="495" y="497" type="curve"/>
      <point x="462" y="494" type="line"/>
      <point x="458" y="428" type="line"/>
      <point x="452" y="428" type="line"/>
      <point x="405" y="463"/>
      <point x="345" y="504"/>
      <point x="285" y="504" type="curve" smooth="yes"/>
      <point x="146" y="504"/>
      <point x="62" y="396"/>
      <point x="62" y="249" type="curve" smooth="yes"/>
      <point x="62" y="110"/>
      <point x="137" y="-9"/>
      <point x="283" y="-9" type="curve" smooth="yes"/>
      <point x="331" y="-9"/>
      <point x="400" y="29"/>
      <point x="450" y="71" type="curve"/>
      <point x="456" y="71" type="line"/>
      <point x="456" y="29" type="line"/>
      <point x="455" y="-52"/>
      <point x="454" y="-119"/>
    </contour>
    <contour>
      <point x="283" y="23" type="curve"/>
      <point x="149" y="26"/>
      <point x="93" y="131"/>
      <point x="93" y="249" type="curve" smooth="yes"/>
      <point x="93" y="372"/>
      <point x="154" y="469"/>
      <point x="285" y="472" type="curve"/>
      <point x="328" y="471"/>
      <point x="397" y="441"/>
      <point x="456" y="384" type="curve"/>
      <point x="456" y="116" type="line"/>
      <point x="407" y="69"/>
      <point x="338" y="25"/>
    </contour>
  </outline>
</glyph>
<glyph name="w" format="2">
  <advance width="785"/>
  <unicode hex="0077"/>
  <anchor x="394" y="0" name="bottom"/>
  <anchor x="394" y="494" name="top"/>
  <outline>
    <contour>
      <point x="203" y="0" type="curve"/>
      <point x="247" y="0" type="line"/>
      <point x="276" y="91"/>
      <point x="307" y="190"/>
      <point x="334" y="275" type="curve"/>
      <point x="389" y="446" type="line"/>
      <point x="395" y="446" type="line"/>
      <point x="450" y="277" type="line"/>
      <point x="478" y="190"/>
      <point x="511" y="90"/>
      <point x="540" y="0" type="curve"/>
      <point x="585" y="0" type="line"/>
      <point x="605" y="61"/>
      <point x="625" y="124"/>
      <point x="646" y="189" type="curve"/>
      <point x="675" y="276" type="line"/>
      <point x="700" y="348"/>
      <point x="726" y="421"/>
      <point x="752" y="494" type="curve"/>
      <point x="714" y="494" type="line"/>
      <point x="687" y="411"/>
      <point x="654" y="308"/>
      <point x="624" y="216" type="curve"/>
      <point x="565" y="36" type="line"/>
      <point x="560" y="36" type="line"/>
      <point x="501" y="215" type="line"/>
      <point x="471" y="309"/>
      <point x="440" y="404"/>
      <point x="411" y="494" type="curve"/>
      <point x="373" y="494" type="line"/>
      <point x="343" y="399"/>
      <point x="313" y="305"/>
      <point x="284" y="213" type="curve"/>
      <point x="227" y="36" type="line"/>
      <point x="222" y="36" type="line"/>
      <point x="164" y="208" type="line"/>
      <point x="134" y="300"/>
      <point x="100" y="404"/>
      <point x="70" y="496" type="curve"/>
      <point x="33" y="494" type="line"/>
      <point x="59" y="420"/>
      <point x="84" y="349"/>
      <point x="110" y="276" type="curve"/>
      <point x="140" y="188" type="line"/>
      <point x="161" y="125"/>
      <point x="182" y="62"/>
    </contour>
  </outline>
</glyph>
<glyph name="z" format="2">
  <advance width="482"/>
  <unicode hex="007A"/>
  <anchor x="239" y="0" name="bottom"/>
  <anchor x="239" y="247" name="center"/>
  <anchor x="239" y="494" name="top"/>
  <outline>
    <contour>
      <point x="44" y="0" type="line"/>
      <point x="442" y="0" type="line"/>
      <point x="442" y="31" type="line"/>
      <point x="368" y="30"/>
      <point x="268" y="29"/>
      <point x="208" y="28" type="curve"/>
      <point x="75" y="28" type="line"/>
      <point x="80" y="19" type="line"/>
      <point x="260" y="255" type="line"/>
      <point x="315" y="326"/>
      <point x="382" y="413"/>
      <point x="425" y="469" type="curve"/>
      <point x="425" y="494" type="line"/>
      <point x="44" y="494" type="line"/>
      <point x="44" y="463" type="line"/>
      <point x="123" y="464"/>
      <point x="225" y="465"/>
      <point x="284" y="466" type="curve"/>
      <point x="404" y="466" type="line"/>
      <point x="397" y="484" type="line"/>
      <point x="218" y="249" type="line"/>
      <point x="166" y="182"/>
      <point x="106" y="104"/>
      <point x="44" y="23" type="curve"/>
    </contour>
  </outline>
</glyph>
<glyph name="braceleft" format="2">
  <advance width="372"/>
  <unicode hex="007B"/>
  <outline>
    <contour>
      <point x="285" y="-112" type="curve" smooth="yes"/>
      <point x="362" y="-112" type="line"/>
      <point x="362" y="-81" type="line"/>
      <point x="338" y="-81"/>
      <point x="302" y="-82"/>
      <point x="285" y="-82" type="curve"/>
      <point x="211" y="-81"/>
      <point x="174" y="-49"/>
      <point x="174" y="13" type="curve" smooth="yes"/>
      <point x="173" y="243" type="line" smooth="yes"/>
      <point x="173" y="251"/>
      <point x="128" y="302"/>
      <point x="106" y="321" type="curve"/>
      <point x="106" y="327" type="line"/>
      <point x="128" y="345"/>
      <point x="173" y="397"/>
      <point x="173" y="404" type="curve" smooth="yes"/>
      <point x="174" y="635" type="line" smooth="yes"/>
      <point x="174" y="697"/>
      <point x="211" y="729"/>
      <point x="285" y="730" type="curve"/>
      <point x="303" y="730"/>
      <point x="340" y="729"/>
      <point x="362" y="729" type="curve"/>
      <point x="362" y="760" type="line"/>
      <point x="285" y="760" type="line" smooth="yes"/>
      <point x="196" y="760"/>
      <point x="141" y="715"/>
      <point x="141" y="635" type="curve"/>
      <point x="141" y="625"/>
      <point x="142" y="456"/>
      <point x="142" y="446" type="curve"/>
      <point x="142" y="386"/>
      <point x="85" y="338"/>
      <point x="48" y="338" type="curve" smooth="yes"/>
      <point x="10" y="338" type="line"/>
      <point x="10" y="309" type="line"/>
      <point x="48" y="309" type="line" smooth="yes"/>
      <point x="85" y="309"/>
      <point x="142" y="261"/>
      <point x="142" y="201" type="curve"/>
      <point x="142" y="191"/>
      <point x="141" y="23"/>
      <point x="141" y="13" type="curve"/>
      <point x="141" y="-67"/>
      <point x="196" y="-112"/>
    </contour>
  </outline>
</glyph>
<glyph name="currency" format="2">
  <advance width="600"/>
  <unicode hex="00A4"/>
  <outline>
    <contour>
      <point x="298" y="130" type="curve" smooth="yes"/>
      <point x="406" y="130"/>
      <point x="487" y="204"/>
      <point x="487" y="320" type="curve" smooth="yes"/>
      <point x="487" y="433"/>
      <point x="407" y="511"/>
      <point x="300" y="511" type="curve" smooth="yes"/>
      <point x="191" y="511"/>
      <point x="111" y="432"/>
      <point x="111" y="320" type="curve" smooth="yes"/>
      <point x="111" y="204"/>
      <point x="191" y="130"/>
    </contour>
    <contour>
      <point x="79" y="76" type="line"/>
      <point x="119" y="117"/>
      <point x="166" y="165"/>
      <point x="190" y="190" type="curve"/>
      <point x="169" y="211" type="line"/>
      <point x="144" y="187"/>
      <point x="96" y="140"/>
      <point x="55" y="100" type="curve"/>
    </contour>
    <contour>
      <point x="298" y="162" type="curve"/>
      <point x="212" y="164"/>
      <point x="143" y="212"/>
      <point x="143" y="320" type="curve" smooth="yes"/>
      <point x="143" y="422"/>
      <point x="213" y="477"/>
      <point x="300" y="479" type="curve"/>
      <point x="386" y="477"/>
      <point x="455" y="422"/>
      <point x="455" y="320" type="curve" smooth="yes"/>
      <point x="455" y="212"/>
      <point x="386" y="164"/>
    </contour>
    <contour>
      <point x="169" y="431" type="curve"/>
      <point x="190" y="452" type="line"/>
      <point x="166" y="477"/>
      <point x="119" y="525"/>
      <point x="79" y="566" type="curve"/>
      <point x="55" y="542" type="line"/>
      <point x="96" y="502"/>
      <point x="144" y="455"/>
    </contour>
    <contour>
      <point x="521" y="76" type="curve"/>
      <point x="545" y="100" type="line"/>
      <point x="504" y="140"/>
      <point x="456" y="187"/>
      <point x="431" y="211" type="curve"/>
      <point x="410" y="190" type="line"/>
      <point x="434" y="165"/>
      <point x="481" y="117"/>
    </contour>
    <contour>
      <point x="431" y="431" type="line"/>
      <point x="456" y="455"/>
      <point x="504" y="502"/>
      <point x="545" y="542" type="curve"/>
      <point x="521" y="566" type="line"/>
      <point x="481" y="525"/>
      <point x="434" y="477"/>
      <point x="410" y="452" type="curve"/>
    </contour>
  </outline>
</glyph>
<glyph name="yen" format="2">
  <advance width="603"/>
  <unicode hex="00A5"/>
  <outline>
    <contour>
      <point x="287" y="288" type="line"/>
      <point x="316" y="288" type="line"/>
      <point x="470" y="528" type="line"/>
      <point x="503" y="578"/>
      <point x="540" y="634"/>
      <point x="573" y="684" type="curve"/>
      <point x="531" y="684" type="line"/>
      <point x="468" y="584"/>
      <point x="436" y="534"/>
      <point x="387" y="456" type="curve"/>
      <point x="304" y="326" type="line"/>
      <point x="298" y="326" type="line"/>
      <point x="216" y="455" type="line"/>
      <point x="166" y="535"/>
      <point x="136" y="583"/>
      <point x="72" y="684" type="curve"/>
      <point x="30" y="684" type="line"/>
      <point x="81" y="606"/>
      <point x="103" y="573"/>
      <point x="133" y="528" type="curve"/>
    </contour>
    <contour>
      <point x="284" y="0" type="curve"/>
      <point x="320" y="0" type="line"/>
      <point x="319" y="78"/>
      <point x="318" y="145"/>
      <point x="317" y="228" type="curve"/>
      <point x="317" y="313" type="line"/>
      <point x="286" y="313" type="line"/>
      <point x="286" y="228" type="line"/>
      <point x="285" y="145"/>
      <point x="285" y="78"/>
    </contour>
    <contour>
      <point x="87" y="156" type="line"/>
      <point x="145" y="157"/>
      <point x="212" y="158"/>
      <point x="247" y="158" type="curve"/>
      <point x="357" y="158" type="line"/>
      <point x="392" y="158"/>
      <point x="459" y="157"/>
      <point x="517" y="156" type="curve"/>
      <point x="517" y="188" type="line"/>
      <point x="459" y="187"/>
      <point x="392" y="186"/>
      <point x="357" y="186" type="curve"/>
      <point x="247" y="186" type="line"/>
      <point x="212" y="186"/>
      <point x="145" y="187"/>
      <point x="87" y="188" type="curve"/>
    </contour>
    <contour>
      <point x="87" y="286" type="line"/>
      <point x="145" y="287"/>
      <point x="212" y="288"/>
      <point x="247" y="288" type="curve"/>
      <point x="357" y="288" type="line"/>
      <point x="392" y="288"/>
      <point x="459" y="287"/>
      <point x="517" y="286" type="curve"/>
      <point x="517" y="318" type="line"/>
      <point x="459" y="317"/>
      <point x="392" y="316"/>
      <point x="357" y="316" type="curve"/>
      <point x="247" y="316" type="line"/>
      <point x="212" y="316"/>
      <point x="145" y="317"/>
      <point x="87" y="318" type="curve"/>
    </contour>
  </outline>
</glyph>
<glyph name="section" format="2">
  <advance width="520"/>
  <unicode hex="00A7"/>
  <outline>
    <contour>
      <point x="244" y="-122" type="curve" smooth="yes"/>
      <point x="377" y="-122"/>
      <point x="434" y="-43"/>
      <point x="434" y="44" type="curve" smooth="yes"/>
      <point x="434" y="148"/>
      <point x="355" y="175"/>
      <point x="242" y="209" type="curve" smooth="yes"/>
      <point x="137" y="241"/>
      <point x="90" y="268"/>
      <point x="90" y="339" type="curve" smooth="yes"/>
      <point x="90" y="418"/>
      <point x="141" y="445"/>
      <point x="189" y="454" type="curve"/>
      <point x="153" y="479" type="line"/>
      <point x="93" y="456"/>
      <point x="58" y="405"/>
      <point x="58" y="340" type="curve" smooth="yes"/>
      <point x="58" y="241"/>
      <point x="139" y="208"/>
      <point x="223" y="182" type="curve" smooth="yes"/>
      <point x="354" y="141"/>
      <point x="402" y="119"/>
      <point x="402" y="48" type="curve" smooth="yes"/>
      <point x="402" y="-59"/>
      <point x="330" y="-87"/>
      <point x="245" y="-89" type="curve"/>
      <point x="201" y="-89"/>
      <point x="133" y="-66"/>
      <point x="57" y="-38" type="curve"/>
      <point x="51" y="-74" type="line"/>
      <point x="125" y="-100"/>
      <point x="203" y="-122"/>
    </contour>
    <contour>
      <point x="389" y="131" type="line"/>
      <point x="448" y="161"/>
      <point x="475" y="216"/>
      <point x="475" y="276" type="curve" smooth="yes"/>
      <point x="475" y="380"/>
      <point x="396" y="407"/>
      <point x="283" y="441" type="curve" smooth="yes"/>
      <point x="178" y="473"/>
      <point x="131" y="500"/>
      <point x="131" y="571" type="curve" smooth="yes"/>
      <point x="131" y="676"/>
      <point x="221" y="690"/>
      <point x="273" y="692" type="curve"/>
      <point x="292" y="692"/>
      <point x="366" y="669"/>
      <point x="433" y="643" type="curve"/>
      <point x="438" y="681" type="line"/>
      <point x="395" y="695"/>
      <point x="308" y="725"/>
      <point x="274" y="725" type="curve" smooth="yes"/>
      <point x="167" y="725"/>
      <point x="99" y="662"/>
      <point x="99" y="572" type="curve" smooth="yes"/>
      <point x="99" y="473"/>
      <point x="180" y="440"/>
      <point x="264" y="414" type="curve" smooth="yes"/>
      <point x="395" y="373"/>
      <point x="443" y="351"/>
      <point x="443" y="280" type="curve" smooth="yes"/>
      <point x="443" y="204"/>
      <point x="408" y="169"/>
      <point x="356" y="154" type="curve"/>
    </contour>
  </outline>
</glyph>
<glyph name="registered" format="2">
  <advance width="562"/>
  <unicode hex="00AE"/>
  <outline>
    <contour>
      <point x="283" y="266" type="curve" smooth="yes"/>
      <point x="430" y="266"/>
      <point x="522" y="368"/>
      <point x="522" y="505" type="curve" smooth="yes"/>
      <point x="522" y="638"/>
      <point x="434" y="744"/>
      <point x="282" y="744" type="curve" smooth="yes"/>
      <point x="131" y="744"/>
      <point x="40" y="640"/>
      <point x="40" y="505" type="curve" smooth="yes"/>
      <point x="40" y="375"/>
      <point x="124" y="266"/>
    </contour>
    <contour>
      <point x="187" y="368" type="curve"/>
      <point x="219" y="368" type="line"/>
      <point x="218" y="410"/>
      <point x="218" y="417"/>
      <point x="217" y="462" type="curve"/>
      <point x="217" y="554" type="line"/>
      <point x="218" y="598"/>
      <point x="218" y="607"/>
      <point x="219" y="649" type="curve"/>
      <point x="187" y="653" type="line"/>
      <point x="188" y="611"/>
      <point x="188" y="602"/>
      <point x="189" y="558" type="curve"/>
      <point x="189" y="462" type="line"/>
      <point x="188" y="417"/>
      <point x="188" y="410"/>
    </contour>
    <contour>
      <point x="283" y="296" type="curve"/>
      <point x="152" y="298"/>
      <point x="70" y="374"/>
      <point x="70" y="505" type="curve" smooth="yes"/>
      <point x="70" y="633"/>
      <point x="154" y="712"/>
      <point x="282" y="714" type="curve"/>
      <point x="410" y="712"/>
      <point x="491" y="635"/>
      <point x="491" y="505" type="curve" smooth="yes"/>
      <point x="491" y="376"/>
      <point x="410" y="298"/>
    </contour>
    <contour>
      <point x="364" y="368" type="curve"/>
      <point x="406" y="368" type="line"/>
      <point x="387" y="390"/>
      <point x="360" y="422"/>
      <point x="336" y="450" type="curve"/>
      <point x="290" y="506" type="line"/>
      <point x="280" y="491" type="line"/>
      <point x="350" y="491"/>
      <point x="377" y="529"/>
      <point x="377" y="575" type="curve" smooth="yes"/>
      <point x="377" y="631"/>
      <point x="338" y="654"/>
      <point x="282" y="654" type="curve"/>
      <point x="242" y="654"/>
      <point x="210" y="653"/>
      <point x="187" y="653" type="curve"/>
      <point x="208" y="626" type="line"/>
      <point x="281" y="626" type="line" smooth="yes"/>
      <point x="306" y="626"/>
      <point x="348" y="624"/>
      <point x="348" y="575" type="curve" smooth="yes"/>
      <point x="348" y="529"/>
      <point x="316" y="515"/>
      <point x="268" y="515" type="curve" smooth="yes"/>
      <point x="212" y="515" type="line"/>
      <point x="212" y="489" type="line"/>
      <point x="277" y="489" type="line"/>
      <point x="259" y="501" type="line"/>
      <point x="311" y="437" type="line"/>
      <point x="328" y="415"/>
      <point x="344" y="394"/>
    </contour>
  </outline>
</glyph>
<glyph name="plusminus" format="2">
  <advance width="560"/>
  <unicode hex="00B1"/>
  <outline>
    <contour>
      <point x="70" y="-2" type="line"/>
      <point x="128" y="-1"/>
      <point x="195" y="0"/>
      <point x="230" y="0" type="curve"/>
      <point x="330" y="0" type="line"/>
      <point x="365" y="0"/>
      <point x="432" y="-1"/>
      <point x="490" y="-2" type="curve"/>
      <point x="490" y="32" type="line"/>
      <point x="432" y="31"/>
      <point x="365" y="30"/>
      <point x="330" y="30" type="curve"/>
      <point x="230" y="30" type="line"/>
      <point x="195" y="30"/>
      <point x="128" y="31"/>
      <point x="70" y="32" type="curve"/>
    </contour>
    <contour>
      <point x="70" y="351" type="line"/>
      <point x="128" y="352"/>
      <point x="195" y="353"/>
      <point x="230" y="353" type="curve"/>
      <point x="330" y="353" type="line"/>
      <point x="365" y="353"/>
      <point x="432" y="352"/>
      <point x="490" y="351" type="curve"/>
      <point x="490" y="385" type="line"/>
      <point x="432" y="384"/>
      <point x="365" y="383"/>
      <point x="330" y="383" type="curve"/>
      <point x="230" y="383" type="line"/>
      <point x="195" y="383"/>
      <point x="128" y="384"/>
      <point x="70" y="385" type="curve"/>
    </contour>
    <contour>
      <point x="263" y="138" type="curve"/>
      <point x="297" y="138" type="line"/>
      <point x="296" y="196"/>
      <point x="295" y="263"/>
      <point x="295" y="298" type="curve"/>
      <point x="295" y="438" type="line"/>
      <point x="295" y="473"/>
      <point x="296" y="540"/>
      <point x="297" y="598" type="curve"/>
      <point x="263" y="598" type="line"/>
      <point x="264" y="540"/>
      <point x="265" y="473"/>
      <point x="265" y="438" type="curve"/>
      <point x="265" y="298" type="line"/>
      <point x="265" y="263"/>
      <point x="264" y="196"/>
    </contour>
  </outline>
</glyph>
<glyph name="paragraph" format="2">
  <advance width="522"/>
  <unicode hex="00B6"/>
  <outline>
    <contour>
      <point x="225" y="313" type="curve" smooth="yes"/>
      <point x="245" y="313" type="line"/>
      <point x="245" y="713" type="line"/>
      <point x="225" y="713" type="line"/>
      <point x="116" y="713"/>
      <point x="40" y="631"/>
      <point x="40" y="516" type="curve" smooth="yes"/>
      <point x="40" y="408"/>
      <point x="109" y="313"/>
    </contour>
    <contour>
      <point x="223" y="-227" type="curve"/>
      <point x="257" y="-227" type="line"/>
      <point x="256" y="-89"/>
      <point x="255" y="64"/>
      <point x="255" y="102" type="curve"/>
      <point x="255" y="384" type="line"/>
      <point x="255" y="422"/>
      <point x="256" y="575"/>
      <point x="257" y="713" type="curve"/>
      <point x="225" y="713" type="line"/>
      <point x="225" y="575"/>
      <point x="225" y="422"/>
      <point x="225" y="384" type="curve"/>
      <point x="225" y="102" type="line"/>
      <point x="225" y="64"/>
      <point x="224" y="-89"/>
    </contour>
    <contour>
      <point x="353" y="-227" type="curve"/>
      <point x="387" y="-227" type="line"/>
      <point x="386" y="-89"/>
      <point x="385" y="64"/>
      <point x="385" y="102" type="curve"/>
      <point x="385" y="384" type="line"/>
      <point x="385" y="422"/>
      <point x="386" y="575"/>
      <point x="387" y="713" type="curve"/>
      <point x="353" y="713" type="line"/>
      <point x="354" y="575"/>
      <point x="355" y="422"/>
      <point x="355" y="384" type="curve"/>
      <point x="355" y="102" type="line"/>
      <point x="355" y="64"/>
      <point x="354" y="-89"/>
    </contour>
    <contour>
      <point x="232" y="683" type="line"/>
      <point x="332" y="683" type="line"/>
      <point x="367" y="683"/>
      <point x="434" y="682"/>
      <point x="492" y="681" type="curve"/>
      <point x="492" y="713" type="line"/>
      <point x="434" y="713"/>
      <point x="367" y="713"/>
      <point x="332" y="713" type="curve"/>
      <point x="232" y="713" type="line"/>
    </contour>
  </outline>
</glyph>
<glyph name="AE" format="2">
  <advance width="956"/>
  <unicode hex="00C6"/>
  <anchor x="491" y="0" name="bottom"/>
  <anchor x="491" y="713" name="top"/>
  <outline>
    <contour>
      <point x="16" y="0" type="curve"/>
      <point x="61" y="0" type="line"/>
      <point x="113" y="90"/>
      <point x="171" y="190"/>
      <point x="221" y="276" type="curve"/>
      <point x="461" y="682" type="line"/>
      <point x="476" y="682" type="line"/>
      <point x="503" y="682" type="line"/>
      <point x="503" y="713" type="line"/>
      <point x="439" y="713" type="line"/>
      <point x="398" y="642"/>
      <point x="357" y="570"/>
      <point x="311" y="490" type="curve"/>
      <point x="164" y="242" type="line"/>
      <point x="117" y="165"/>
      <point x="63" y="77"/>
    </contour>
    <contour>
      <point x="163" y="203" type="line"/>
      <point x="492" y="203" type="line"/>
      <point x="492" y="233" type="line"/>
      <point x="163" y="233" type="line"/>
    </contour>
    <contour>
      <point x="473" y="0" type="curve"/>
      <point x="510" y="0" type="line"/>
      <point x="510" y="3" type="line"/>
      <point x="509" y="84"/>
      <point x="508" y="155"/>
      <point x="507" y="242" type="curve"/>
      <point x="507" y="472" type="line"/>
      <point x="508" y="559"/>
      <point x="509" y="629"/>
      <point x="510" y="710" type="curve"/>
      <point x="510" y="713" type="line"/>
      <point x="473" y="713" type="line"/>
      <point x="474" y="632"/>
      <point x="474" y="562"/>
      <point x="475" y="475" type="curve"/>
      <point x="475" y="238" type="line"/>
      <point x="474" y="151"/>
      <point x="474" y="81"/>
    </contour>
    <contour>
      <point x="501" y="0" type="line"/>
      <point x="893" y="0" type="line"/>
      <point x="893" y="35" type="line"/>
      <point x="823" y="34"/>
      <point x="704" y="32"/>
      <point x="641" y="31" type="curve"/>
      <point x="501" y="31" type="line"/>
    </contour>
    <contour>
      <point x="501" y="347" type="line"/>
      <point x="645" y="347" type="line"/>
      <point x="699" y="347"/>
      <point x="832" y="346"/>
      <point x="871" y="346" type="curve"/>
      <point x="871" y="381" type="line"/>
      <point x="806" y="380"/>
      <point x="731" y="379"/>
      <point x="646" y="378" type="curve"/>
      <point x="501" y="378" type="line"/>
    </contour>
    <contour>
      <point x="501" y="682" type="line"/>
      <point x="637" y="682" type="line"/>
      <point x="707" y="681"/>
      <point x="823" y="679"/>
      <point x="894" y="678" type="curve"/>
      <point x="894" y="713" type="line"/>
      <point x="501" y="713" type="line"/>
    </contour>
  </outline>
</glyph>
<glyph name="multiply" format="2">
  <advance width="554"/>
  <unicode hex="00D7"/>
  <outline>
    <contour>
      <point x="456" y="92" type="curve"/>
      <point x="480" y="116" type="line"/>
      <point x="438" y="156"/>
      <point x="390" y="203"/>
      <point x="365" y="228" type="curve"/>
      <point x="210" y="383" type="line"/>
      <point x="185" y="408"/>
      <point x="138" y="456"/>
      <point x="98" y="498" type="curve"/>
      <point x="74" y="474" type="line"/>
      <point x="116" y="434"/>
      <point x="164" y="387"/>
      <point x="189" y="362" type="curve"/>
      <point x="344" y="207" type="line"/>
      <point x="369" y="182"/>
      <point x="416" y="134"/>
    </contour>
    <contour>
      <point x="98" y="92" type="line"/>
      <point x="138" y="134"/>
      <point x="185" y="182"/>
      <point x="210" y="207" type="curve"/>
      <point x="365" y="362" type="line"/>
      <point x="390" y="387"/>
      <point x="438" y="434"/>
      <point x="480" y="474" type="curve"/>
      <point x="456" y="498" type="line"/>
      <point x="416" y="456"/>
      <point x="369" y="408"/>
      <point x="344" y="383" type="curve"/>
      <point x="189" y="228" type="line"/>
      <point x="164" y="203"/>
      <point x="116" y="156"/>
      <point x="74" y="116" type="curve"/>
    </contour>
  </outline>
</glyph>
<glyph name="Thorn" format="2">
  <advance width="610"/>
  <unicode hex="00DE"/>
  <outline>
    <contour>
      <point x="108" y="0" type="curve"/>
      <point x="145" y="0" type="line"/>
      <point x="144" y="81"/>
      <point x="143" y="151"/>
      <point x="142" y="238" type="curve"/>
      <point x="142" y="475" type="line"/>
      <point x="143" y="562"/>
      <point x="144" y="632"/>
      <point x="145" y="713" type="curve"/>
      <point x="108" y="713" type="line"/>
      <point x="109" y="632"/>
      <point x="109" y="562"/>
      <point x="110" y="475" type="curve"/>
      <point x="110" y="238" type="line"/>
      <point x="109" y="151"/>
      <point x="109" y="81"/>
    </contour>
    <contour>
      <point x="296" y="169" type="curve"/>
      <point x="501" y="169"/>
      <point x="560" y="262"/>
      <point x="560" y="384" type="curve" smooth="yes"/>
      <point x="560" y="506"/>
      <point x="490" y="573"/>
      <point x="336" y="573" type="curve"/>
      <point x="249" y="573"/>
      <point x="180" y="572"/>
      <point x="137" y="572" type="curve"/>
      <point x="137" y="541" type="line"/>
      <point x="334" y="541" type="line" smooth="yes"/>
      <point x="415" y="541"/>
      <point x="527" y="532"/>
      <point x="527" y="384" type="curve" smooth="yes"/>
      <point x="527" y="252"/>
      <point x="456" y="200"/>
      <point x="295" y="200" type="curve" smooth="yes"/>
      <point x="137" y="200" type="line"/>
      <point x="137" y="170" type="line"/>
      <point x="177" y="170"/>
      <point x="245" y="169"/>
    </contour>
  </outline>
</glyph>
<glyph name="ae" format="2">
  <advance width="823"/>
  <unicode hex="00E6"/>
  <anchor x="402" y="0" name="bottom"/>
  <anchor x="402" y="494" name="top"/>
  <outline>
    <contour>
      <point x="618" y="-9" type="curve" smooth="yes"/>
      <point x="653" y="-9"/>
      <point x="726" y="10"/>
      <point x="772" y="26" type="curve"/>
      <point x="769" y="63" type="line"/>
      <point x="715" y="40"/>
      <point x="643" y="23"/>
      <point x="618" y="23" type="curve" smooth="yes"/>
      <point x="471" y="23"/>
      <point x="412" y="111"/>
      <point x="412" y="249" type="curve"/>
      <point x="412" y="251" type="line"/>
      <point x="412" y="379"/>
      <point x="470" y="469"/>
      <point x="592" y="472" type="curve"/>
      <point x="688" y="469"/>
      <point x="752" y="416"/>
      <point x="752" y="295" type="curve" smooth="yes"/>
      <point x="752" y="285"/>
      <point x="752" y="275"/>
      <point x="751" y="264" type="curve"/>
      <point x="778" y="237" type="line"/>
      <point x="781" y="256"/>
      <point x="782" y="274"/>
      <point x="782" y="297" type="curve" smooth="yes"/>
      <point x="782" y="427"/>
      <point x="708" y="504"/>
      <point x="591" y="504" type="curve" smooth="yes"/>
      <point x="460" y="504"/>
      <point x="382" y="398"/>
      <point x="382" y="251" type="curve" smooth="yes"/>
      <point x="382" y="101"/>
      <point x="452" y="-9"/>
    </contour>
    <contour>
      <point x="202" y="22" type="curve" smooth="yes"/>
      <point x="132" y="22"/>
      <point x="82" y="52"/>
      <point x="82" y="128" type="curve" smooth="yes"/>
      <point x="82" y="205"/>
      <point x="146" y="234"/>
      <point x="221" y="248" type="curve" smooth="yes"/>
      <point x="334" y="269"/>
      <point x="363" y="280"/>
      <point x="382" y="289" type="curve"/>
      <point x="381" y="143" type="line"/>
      <point x="308" y="65"/>
      <point x="244" y="22"/>
    </contour>
    <contour>
      <point x="202" y="-9" type="curve" smooth="yes"/>
      <point x="253" y="-9"/>
      <point x="331" y="41"/>
      <point x="415" y="135" type="curve"/>
      <point x="400" y="250" type="line"/>
      <point x="413" y="334" type="line"/>
      <point x="413" y="453"/>
      <point x="350" y="504"/>
      <point x="251" y="504" type="curve" smooth="yes"/>
      <point x="214" y="504"/>
      <point x="117" y="479"/>
      <point x="73" y="467" type="curve"/>
      <point x="76" y="431" type="line"/>
      <point x="151" y="454"/>
      <point x="229" y="472"/>
      <point x="251" y="472" type="curve" smooth="yes"/>
      <point x="325" y="472"/>
      <point x="387" y="450"/>
      <point x="382" y="312" type="curve"/>
      <point x="209" y="276" type="line" smooth="yes"/>
      <point x="140" y="262"/>
      <point x="51" y="231"/>
      <point x="51" y="127" type="curve" smooth="yes"/>
      <point x="51" y="46"/>
      <point x="106" y="-9"/>
    </contour>
    <contour>
      <point x="397" y="237" type="line"/>
      <point x="778" y="237" type="line"/>
      <point x="778" y="268" type="line"/>
      <point x="756" y="267" type="line"/>
      <point x="397" y="267" type="line"/>
    </contour>
  </outline>
</glyph>
<glyph name="divide" format="2">
  <advance width="560"/>
  <unicode hex="00F7"/>
  <outline>
    <contour>
      <point x="70" y="278" type="line"/>
      <point x="128" y="279"/>
      <point x="195" y="280"/>
      <point x="230" y="280" type="curve"/>
      <point x="330" y="280" type="line"/>
      <point x="365" y="280"/>
      <point x="432" y="279"/>
      <point x="490" y="278" type="curve"/>
      <point x="490" y="312" type="line"/>
      <point x="432" y="311"/>
      <point x="365" y="310"/>
      <point x="330" y="310" type="curve"/>
      <point x="230" y="310" type="line"/>
      <point x="195" y="310"/>
      <point x="128" y="311"/>
      <point x="70" y="312" type="curve"/>
    </contour>
    <contour>
      <point x="279" y="80" type="curve" smooth="yes"/>
      <point x="307" y="80"/>
      <point x="324" y="94"/>
      <point x="324" y="128" type="curve" smooth="yes"/>
      <point x="324" y="157"/>
      <point x="307" y="170"/>
      <point x="279" y="170" type="curve" smooth="yes"/>
      <point x="252" y="170"/>
      <point x="234" y="157"/>
      <point x="234" y="128" type="curve" smooth="yes"/>
      <point x="234" y="94"/>
      <point x="252" y="80"/>
    </contour>
    <contour>
      <point x="279" y="418" type="curve" smooth="yes"/>
      <point x="307" y="418"/>
      <point x="324" y="432"/>
      <point x="324" y="466" type="curve" smooth="yes"/>
      <point x="324" y="495"/>
      <point x="307" y="508"/>
      <point x="279" y="508" type="curve" smooth="yes"/>
      <point x="252" y="508"/>
      <point x="234" y="495"/>
      <point x="234" y="466" type="curve" smooth="yes"/>
      <point x="234" y="432"/>
      <point x="252" y="418"/>
    </contour>
  </outline>
</glyph>
<glyph name="idotless" format="2">
  <advance width="238"/>
  <unicode hex="0131"/>
  <anchor x="119" y="0" name="bottom"/>
  <anchor x="137" y="0" name="ogonek"/>
  <anchor x="119" y="494" name="top"/>
  <outline>
    <contour>
      <point x="102" y="0" type="curve"/>
      <point x="137" y="0" type="line"/>
      <point x="136" y="75"/>
      <point x="135" y="140"/>
      <point x="134" y="221" type="curve"/>
      <point x="134" y="271" type="line"/>
      <point x="135" y="352"/>
      <point x="136" y="419"/>
      <point x="137" y="494" type="curve"/>
      <point x="101" y="494" type="line"/>
      <point x="102" y="419"/>
      <point x="103" y="352"/>
      <point x="104" y="271" type="curve"/>
      <point x="104" y="221" type="line"/>
      <point x="103" y="140"/>
      <point x="103" y="75"/>
    </contour>
  </outline>
</glyph>
<glyph name="Lslash" format="2">
  <advance width="566"/>
  <unicode hex="0141"/>
  <outline>
    <contour>
      <point x="108" y="0" type="curve"/>
      <point x="145" y="0" type="line"/>
      <point x="145" y="3" type="line"/>
      <point x="144" y="84"/>
      <point x="143" y="154"/>
      <point x="142" y="241" type="curve"/>
      <point x="142" y="475" type="line"/>
      <point x="143" y="562"/>
      <point x="144" y="632"/>
      <point x="145" y="713" type="curve"/>
      <point x="108" y="713" type="line"/>
      <point x="109" y="632"/>
      <point x="109" y="562"/>
      <point x="110" y="475" type="curve"/>
      <point x="110" y="238" type="line"/>
      <point x="109" y="151"/>
      <point x="109" y="81"/>
    </contour>
    <contour>
      <point x="0" y="293" type="line"/>
      <point x="62" y="312"/>
      <point x="119" y="330"/>
      <point x="168" y="345" type="curve"/>
      <point x="215" y="359" type="line"/>
      <point x="265" y="373"/>
      <point x="320" y="389"/>
      <point x="384" y="407" type="curve"/>
      <point x="374" y="440" type="line"/>
      <point x="313" y="421"/>
      <point x="258" y="404"/>
      <point x="206" y="388" type="curve"/>
      <point x="160" y="374" type="line"/>
      <point x="110" y="360"/>
      <point x="53" y="344"/>
      <point x="-10" y="326" type="curve"/>
    </contour>
    <contour>
      <point x="136" y="0" type="line"/>
      <point x="528" y="0" type="line"/>
      <point x="528" y="35" type="line"/>
      <point x="444" y="34"/>
      <point x="373" y="33"/>
      <point x="250" y="31" type="curve"/>
      <point x="136" y="31" type="line"/>
    </contour>
  </outline>
</glyph>
<glyph name="lslash" format="2">
  <advance width="258"/>
  <unicode hex="0142"/>
  <outline>
    <contour>
      <point x="-2" y="286" type="line"/>
      <point x="43" y="300"/>
      <point x="79" y="311"/>
      <point x="117" y="323" type="curve"/>
      <point x="147" y="332" type="line"/>
      <point x="181" y="341"/>
      <point x="223" y="353"/>
      <point x="267" y="365" type="curve"/>
      <point x="258" y="396" type="line"/>
      <point x="214" y="382"/>
      <point x="177" y="371"/>
      <point x="139" y="359" type="curve"/>
      <point x="109" y="350" type="line"/>
      <point x="72" y="340"/>
      <point x="33" y="329"/>
      <point x="-11" y="317" type="curve"/>
    </contour>
    <contour>
      <point x="112" y="0" type="curve"/>
      <point x="147" y="0" type="line"/>
      <point x="146" y="75"/>
      <point x="145" y="140"/>
      <point x="144" y="221" type="curve"/>
      <point x="144" y="494" type="line"/>
      <point x="145" y="579"/>
      <point x="146" y="658"/>
      <point x="147" y="740" type="curve"/>
      <point x="108" y="729" type="line"/>
      <point x="110" y="657"/>
      <point x="112" y="579"/>
      <point x="114" y="494" type="curve"/>
      <point x="114" y="221" type="line"/>
      <point x="113" y="140"/>
      <point x="113" y="75"/>
    </contour>
  </outline>
</glyph>
<glyph name="Eng" format="2">
  <advance width="758"/>
  <unicode hex="014A"/>
  <outline>
    <contour>
      <point x="519" y="-192" type="curve"/>
      <point x="559" y="-192" type="line"/>
      <point x="585" y="-140"/>
      <point x="648" y="-13"/>
      <point x="648" y="3" type="curve" smooth="yes"/>
      <point x="648" y="80"/>
      <point x="647" y="160"/>
      <point x="647" y="237" type="curve"/>
      <point x="647" y="475" type="line"/>
      <point x="648" y="562"/>
      <point x="649" y="632"/>
      <point x="650" y="713" type="curve"/>
      <point x="613" y="713" type="line"/>
      <point x="614" y="632"/>
      <point x="614" y="562"/>
      <point x="615" y="475" type="curve"/>
      <point x="615" y="62" type="line"/>
      <point x="611" y="62" type="line"/>
      <point x="426" y="319" type="line"/>
      <point x="336" y="446"/>
      <point x="244" y="575"/>
      <point x="146" y="713" type="curve"/>
      <point x="108" y="713" type="line"/>
      <point x="109" y="632"/>
      <point x="109" y="562"/>
      <point x="110" y="475" type="curve"/>
      <point x="110" y="238" type="line"/>
      <point x="109" y="151"/>
      <point x="109" y="81"/>
      <point x="108" y="0" type="curve"/>
      <point x="145" y="0" type="line"/>
      <point x="144" y="81"/>
      <point x="143" y="151"/>
      <point x="142" y="238" type="curve"/>
      <point x="142" y="655" type="line"/>
      <point x="146" y="655" type="line"/>
      <point x="331" y="396" type="line"/>
      <point x="441" y="241"/>
      <point x="530" y="116"/>
      <point x="613" y="0" type="curve"/>
      <point x="630" y="0" type="line"/>
      <point x="613" y="31" type="line"/>
      <point x="613" y="-3" type="line"/>
      <point x="579" y="-72"/>
      <point x="549" y="-131"/>
    </contour>
  </outline>
</glyph>
<glyph name="Schwa" format="2">
  <advance width="793"/>
  <unicode hex="018F"/>
  <outline>
    <contour>
      <point x="402" y="-9" type="curve" smooth="yes"/>
      <point x="612" y="-9"/>
      <point x="733" y="148"/>
      <point x="733" y="358" type="curve" smooth="yes"/>
      <point x="733" y="580"/>
      <point x="602" y="725"/>
      <point x="396" y="725" type="curve" smooth="yes"/>
      <point x="324" y="725"/>
      <point x="178" y="663"/>
      <point x="114" y="630" type="curve"/>
      <point x="121" y="591" type="line"/>
      <point x="203" y="637"/>
      <point x="344" y="692"/>
      <point x="396" y="692" type="curve"/>
      <point x="587" y="688"/>
      <point x="699" y="572"/>
      <point x="700" y="361" type="curve"/>
      <point x="700" y="358" type="line"/>
      <point x="700" y="182"/>
      <point x="619" y="28"/>
      <point x="400" y="24" type="curve"/>
      <point x="182" y="28"/>
      <point x="93" y="178"/>
      <point x="93" y="358" type="curve"/>
      <point x="85" y="347" type="line"/>
      <point x="715" y="347" type="line"/>
      <point x="715" y="378" type="line"/>
      <point x="60" y="378" type="line"/>
      <point x="60" y="358" type="line"/>
      <point x="60" y="158"/>
      <point x="175" y="-9"/>
    </contour>
  </outline>
</glyph>
<glyph name="verticallinemod" format="2">
  <advance width="190"/>
  <unicode hex="02C8"/>
  <outline>
    <contour>
      <point x="110" y="534" type="curve"/>
      <point x="80" y="534" type="line"/>
      <point x="79" y="616"/>
      <point x="78" y="697"/>
      <point x="77" y="779" type="curve"/>
      <point x="113" y="779" type="line"/>
      <point x="112" y="697"/>
      <point x="111" y="616"/>
    </contour>
  </outline>
</glyph>
<glyph name="macroncomb" format="2">
  <unicode hex="0304"/>
  <anchor x="300" y="494" name="_top"/>
  <anchor x="300" y="668" name="top"/>
  <outline>
    <contour>
      <point x="154" y="649" type="line"/>
      <point x="198" y="649"/>
      <point x="247" y="650"/>
      <point x="300" y="650" type="curve"/>
      <point x="353" y="650"/>
      <point x="402" y="649"/>
      <point x="446" y="649" type="curve"/>
      <point x="446" y="679" type="line"/>
      <point x="402" y="679"/>
      <point x="353" y="678"/>
      <point x="300" y="678" type="curve"/>
      <point x="247" y="678"/>
      <point x="198" y="679"/>
      <point x="154" y="679" type="curve"/>
    </contour>
  </outline>
</glyph>
<glyph name="dotaccentcomb" format="2">
  <unicode hex="0307"/>
  <anchor x="99" y="494" name="_top"/>
  <anchor x="98" y="685" name="top"/>
  <outline>
    <contour>
      <point x="97" y="638" type="curve" smooth="yes"/>
      <point x="124" y="638"/>
      <point x="135" y="654"/>
      <point x="135" y="687" type="curve" smooth="yes"/>
      <point x="135" y="715"/>
      <point x="124" y="725"/>
      <point x="98" y="725" type="curve" smooth="yes"/>
      <point x="71" y="725"/>
      <point x="60" y="716"/>
      <point x="60" y="690" type="curve" smooth="yes"/>
      <point x="60" y="654"/>
      <point x="71" y="638"/>
    </contour>
  </outline>
</glyph>
<glyph name="dieresiscomb" format="2">
  <unicode hex="0308"/>
  <anchor x="299" y="494" name="_top"/>
  <anchor x="298" y="675" name="top"/>
  <outline>
    <contour>
      <point x="398" y="628" type="curve" smooth="yes"/>
      <point x="424" y="628"/>
      <point x="434" y="643"/>
      <point x="434" y="675" type="curve" smooth="yes"/>
      <point x="434" y="701"/>
      <point x="424" y="711"/>
      <point x="399" y="711" type="curve" smooth="yes"/>
      <point x="373" y="711"/>
      <point x="363" y="702"/>
      <point x="363" y="678" type="curve" smooth="yes"/>
      <point x="363" y="643"/>
      <point x="373" y="628"/>
    </contour>
    <contour>
      <point x="198" y="628" type="curve" smooth="yes"/>
      <point x="224" y="628"/>
      <point x="234" y="643"/>
      <point x="234" y="675" type="curve" smooth="yes"/>
      <point x="234" y="701"/>
      <point x="224" y="711"/>
      <point x="199" y="711" type="curve" smooth="yes"/>
      <point x="173" y="711"/>
      <point x="163" y="702"/>
      <point x="163" y="678" type="curve" smooth="yes"/>
      <point x="163" y="643"/>
      <point x="173" y="628"/>
    </contour>
  </outline>
</glyph>
<glyph name="hookabovecomb" format="2">
  <unicode hex="0309"/>
  <anchor x="300" y="494" name="_top"/>
  <anchor x="299" y="733" name="top"/>
  <outline>
    <contour>
      <point x="279" y="586" type="line"/>
      <point x="309" y="586" type="line"/>
      <point x="309" y="621" type="line"/>
      <point x="345" y="636"/>
      <point x="397" y="663"/>
      <point x="397" y="719" type="curve" smooth="yes"/>
      <point x="397" y="771"/>
      <point x="350" y="796"/>
      <point x="303" y="796" type="curve" smooth="yes"/>
      <point x="288" y="796"/>
      <point x="236" y="781"/>
      <point x="211" y="773" type="curve"/>
      <point x="214" y="739" type="line"/>
      <point x="250" y="752"/>
      <point x="291" y="765"/>
      <point x="302" y="765" type="curve"/>
      <point x="336" y="764"/>
      <point x="366" y="753"/>
      <point x="366" y="719" type="curve" smooth="yes"/>
      <point x="366" y="682"/>
      <point x="329" y="656"/>
      <point x="279" y="639" type="curve"/>
    </contour>
  </outline>
</glyph>
<glyph name="dotbelowcomb" format="2">
  <unicode hex="0323"/>
  <anchor x="300" y="0" name="_bottom"/>
  <anchor x="300" y="0" name="bottom"/>
  <outline>
    <contour>
      <point x="299" y="-202" type="curve" smooth="yes"/>
      <point x="326" y="-202"/>
      <point x="337" y="-186"/>
      <point x="337" y="-153" type="curve" smooth="yes"/>
      <point x="337" y="-125"/>
      <point x="326" y="-115"/>
      <point x="300" y="-115" type="curve" smooth="yes"/>
      <point x="273" y="-115"/>
      <point x="262" y="-124"/>
      <point x="262" y="-150" type="curve" smooth="yes"/>
      <point x="262" y="-186"/>
      <point x="273" y="-202"/>
    </contour>
  </outline>
</glyph>
<glyph name="cedillacomb" format="2">
  <unicode hex="0327"/>
  <anchor x="299" y="0" name="_bottom"/>
  <outline>
    <contour>
      <point x="277" y="-210" type="curve" smooth="yes"/>
      <point x="349" y="-210"/>
      <point x="378" y="-175"/>
      <point x="378" y="-133" type="curve" smooth="yes"/>
      <point x="378" y="-106"/>
      <point x="360" y="-73"/>
      <point x="285" y="-64" type="curve"/>
      <point x="313" y="0" type="line"/>
      <point x="313" y="12" type="line"/>
      <point x="288" y="12" type="line"/>
      <point x="247" y="-85" type="line"/>
      <point x="330" y="-90"/>
      <point x="347" y="-114"/>
      <point x="347" y="-135" type="curve" smooth="yes"/>
      <point x="347" y="-160"/>
      <point x="331" y="-180"/>
      <point x="277" y="-181" type="curve"/>
      <point x="262" y="-179"/>
      <point x="240" y="-176"/>
      <point x="221" y="-173" type="curve"/>
      <point x="221" y="-204" type="line"/>
      <point x="244" y="-207"/>
      <point x="270" y="-210"/>
    </contour>
  </outline>
</glyph>
<glyph name="strokelongcomb" format="2">
  <unicode hex="0336"/>
  <anchor x="305" y="357" name="_center"/>
  <outline>
    <contour>
      <point x="-40" y="530" type="line"/>
      <point x="26" y="531"/>
      <point x="88" y="531"/>
      <point x="142" y="532" type="curve"/>
      <point x="468" y="532" type="line"/>
      <point x="522" y="531"/>
      <point x="584" y="531"/>
      <point x="650" y="530" type="curve"/>
      <point x="650" y="564" type="line"/>
      <point x="584" y="563"/>
      <point x="522" y="563"/>
      <point x="468" y="562" type="curve"/>
      <point x="142" y="562" type="line"/>
      <point x="88" y="563"/>
      <point x="26" y="563"/>
      <point x="-40" y="564" type="curve"/>
    </contour>
  </outline>
</glyph>
<glyph name="slashlongcomb" format="2">
  <unicode hex="0338"/>
  <anchor x="306" y="357" name="_center"/>
  <outline>
    <contour>
      <point x="20" y="-57" type="line"/>
      <point x="86" y="29"/>
      <point x="147" y="109"/>
      <point x="219" y="203" type="curve"/>
      <point x="416" y="463" type="line"/>
      <point x="489" y="557"/>
      <point x="550" y="635"/>
      <point x="618" y="723" type="curve"/>
      <point x="589" y="745" type="line"/>
      <point x="523" y="657"/>
      <point x="463" y="577"/>
      <point x="390" y="480" type="curve"/>
      <point x="195" y="223" type="line"/>
      <point x="121" y="129"/>
      <point x="64" y="56"/>
      <point x="-7" y="-34" type="curve"/>
    </contour>
  </outline>
</glyph>
<glyph name="pi" format="2">
  <advance width="582"/>
  <unicode hex="03C0"/>
  <outline>
    <contour>
      <point x="474" y="0" type="curve"/>
      <point x="511" y="0" type="line"/>
      <point x="489" y="65"/>
      <point x="468" y="127"/>
      <point x="448" y="186" type="curve"/>
      <point x="448" y="494" type="line"/>
      <point x="419" y="494" type="line"/>
      <point x="419" y="378"/>
      <point x="417" y="328"/>
      <point x="417" y="190" type="curve"/>
      <point x="417" y="175"/>
      <point x="450" y="74"/>
    </contour>
    <contour>
      <point x="133" y="0" type="curve"/>
      <point x="168" y="0" type="line"/>
      <point x="168" y="74"/>
      <point x="168" y="141"/>
      <point x="169" y="223" type="curve"/>
      <point x="169" y="287" type="line"/>
      <point x="171" y="354"/>
      <point x="173" y="416"/>
      <point x="176" y="494" type="curve"/>
      <point x="142" y="494" type="line"/>
      <point x="141" y="420"/>
      <point x="140" y="352"/>
      <point x="139" y="271" type="curve"/>
      <point x="139" y="223" type="line"/>
      <point x="137" y="142"/>
      <point x="135" y="75"/>
    </contour>
    <contour>
      <point x="29" y="463" type="line"/>
      <point x="151" y="466" type="line"/>
      <point x="338" y="466" type="line"/>
      <point x="406" y="466"/>
      <point x="479" y="466"/>
      <point x="549" y="463" type="curve"/>
      <point x="549" y="494" type="line"/>
      <point x="29" y="494" type="line"/>
    </contour>
  </outline>
</glyph>
<glyph name="Germandbls" format="2">
  <advance width="706"/>
  <unicode hex="1E9E"/>
  <outline>
    <contour>
      <point x="422" y="-8" type="curve" smooth="yes"/>
      <point x="588" y="-8"/>
      <point x="657" y="81"/>
      <point x="657" y="186" type="curve" smooth="yes"/>
      <point x="657" y="293"/>
      <point x="581" y="371"/>
      <point x="368" y="397" type="curve"/>
      <point x="373" y="386" type="line"/>
      <point x="479" y="491" type="line"/>
      <point x="521" y="531"/>
      <point x="559" y="568"/>
      <point x="598" y="605" type="curve"/>
      <point x="605" y="652" type="line"/>
      <point x="553" y="679"/>
      <point x="428" y="724"/>
      <point x="356" y="724" type="curve" smooth="yes"/>
      <point x="182" y="724"/>
      <point x="97" y="626"/>
      <point x="97" y="468" type="curve" smooth="yes"/>
      <point x="97" y="391"/>
      <point x="98" y="315"/>
      <point x="98" y="238" type="curve" smooth="yes"/>
      <point x="97" y="151"/>
      <point x="97" y="81"/>
      <point x="96" y="0" type="curve"/>
      <point x="133" y="0" type="line"/>
      <point x="132" y="81"/>
      <point x="131" y="151"/>
      <point x="130" y="238" type="curve"/>
      <point x="130" y="460" type="line" smooth="yes"/>
      <point x="130" y="609"/>
      <point x="192" y="691"/>
      <point x="355" y="692" type="curve"/>
      <point x="413" y="691"/>
      <point x="526" y="655"/>
      <point x="582" y="623" type="curve"/>
      <point x="580" y="637" type="line"/>
      <point x="462" y="519" type="line"/>
      <point x="421" y="479"/>
      <point x="382" y="441"/>
      <point x="342" y="402" type="curve"/>
      <point x="342" y="369" type="line"/>
      <point x="531" y="350"/>
      <point x="624" y="292"/>
      <point x="624" y="186" type="curve" smooth="yes"/>
      <point x="624" y="67"/>
      <point x="537" y="26"/>
      <point x="422" y="25" type="curve"/>
      <point x="381" y="26"/>
      <point x="316" y="40"/>
      <point x="268" y="55" type="curve"/>
      <point x="268" y="15" type="line"/>
      <point x="315" y="5"/>
      <point x="385" y="-8"/>
    </contour>
  </outline>
</glyph>
<glyph name="fraction" format="2">
  <advance width="273"/>
  <unicode hex="2044"/>
  <outline>
    <contour>
      <point x="-84" y="0" type="curve"/>
      <point x="-44" y="0" type="line"/>
      <point x="-4" y="73"/>
      <point x="32" y="138"/>
      <point x="82" y="229" type="curve"/>
      <point x="221" y="477" type="line"/>
      <point x="275" y="572"/>
      <point x="312" y="636"/>
      <point x="356" y="713" type="curve"/>
      <point x="316" y="713" type="line"/>
      <point x="274" y="636"/>
      <point x="239" y="572"/>
      <point x="187" y="477" type="curve"/>
      <point x="48" y="229" type="line"/>
      <point x="-5" y="137"/>
      <point x="-42" y="73"/>
    </contour>
  </outline>
</glyph>
<glyph name="lira" format="2">
  <advance width="579"/>
  <unicode hex="20A4"/>
  <outline>
    <contour>
      <point x="75" y="0" type="line"/>
      <point x="544" y="0" type="line"/>
      <point x="544" y="33" type="line"/>
      <point x="464" y="32"/>
      <point x="333" y="31"/>
      <point x="244" y="30" type="curve"/>
      <point x="96" y="30" type="line"/>
      <point x="101" y="11" type="line"/>
      <point x="171" y="141"/>
      <point x="186" y="179"/>
      <point x="186" y="219" type="curve" smooth="yes"/>
      <point x="186" y="458" type="line" smooth="yes"/>
      <point x="186" y="600"/>
      <point x="244" y="663"/>
      <point x="363" y="664" type="curve"/>
      <point x="381" y="664"/>
      <point x="446" y="646"/>
      <point x="508" y="623" type="curve"/>
      <point x="513" y="658" type="line"/>
      <point x="475" y="671"/>
      <point x="393" y="696"/>
      <point x="362" y="696" type="curve" smooth="yes"/>
      <point x="237" y="696"/>
      <point x="154" y="622"/>
      <point x="154" y="462" type="curve" smooth="yes"/>
      <point x="154" y="381"/>
      <point x="155" y="301"/>
      <point x="155" y="220" type="curve"/>
      <point x="155" y="190"/>
      <point x="141" y="149"/>
      <point x="75" y="27" type="curve"/>
    </contour>
    <contour>
      <point x="66" y="387" type="line"/>
      <point x="124" y="388"/>
      <point x="191" y="389"/>
      <point x="226" y="389" type="curve"/>
      <point x="256" y="389" type="line"/>
      <point x="291" y="389"/>
      <point x="358" y="388"/>
      <point x="416" y="387" type="curve"/>
      <point x="416" y="419" type="line"/>
      <point x="358" y="418"/>
      <point x="291" y="417"/>
      <point x="256" y="417" type="curve"/>
      <point x="226" y="417" type="line"/>
      <point x="191" y="417"/>
      <point x="124" y="418"/>
      <point x="66" y="419" type="curve"/>
    </contour>
    <contour>
      <point x="66" y="257" type="line"/>
      <point x="124" y="258"/>
      <point x="191" y="259"/>
      <point x="226" y="259" type="curve"/>
      <point x="256" y="259" type="line"/>
      <point x="291" y="259"/>
      <point x="358" y="258"/>
      <point x="416" y="257" type="curve"/>
      <point x="416" y="289" type="line"/>
      <point x="358" y="288"/>
      <point x="291" y="287"/>
      <point x="256" y="287" type="curve"/>
      <point x="226" y="287" type="line"/>
      <point x="191" y="287"/>
      <point x="124" y="288"/>
      <point x="66" y="289" type="curve"/>
    </contour>
  </outline>
</glyph>
<glyph name="won" format="2">
  <advance width="1053"/>
  <unicode hex="20A9"/>
  <outline>
    <contour>
      <point x="286" y="0" type="curve"/>
      <point x="340" y="0" type="line"/>
      <point x="369" y="104"/>
      <point x="405" y="233"/>
      <point x="435" y="340" type="curve"/>
      <point x="523" y="645" type="line"/>
      <point x="529" y="645" type="line"/>
      <point x="618" y="338" type="line"/>
      <point x="648" y="231"/>
      <point x="683" y="107"/>
      <point x="713" y="0" type="curve"/>
      <point x="767" y="0" type="line"/>
      <point x="786" y="66"/>
      <point x="809" y="146"/>
      <point x="829" y="215" type="curve"/>
      <point x="895" y="433" type="line"/>
      <point x="917" y="503"/>
      <point x="948" y="601"/>
      <point x="974" y="684" type="curve"/>
      <point x="936" y="684" type="line"/>
      <point x="904" y="575"/>
      <point x="867" y="449"/>
      <point x="837" y="347" type="curve"/>
      <point x="743" y="36" type="line"/>
      <point x="738" y="36" type="line"/>
      <point x="649" y="341" type="line"/>
      <point x="618" y="451"/>
      <point x="583" y="574"/>
      <point x="552" y="684" type="curve"/>
      <point x="499" y="684" type="line"/>
      <point x="469" y="576"/>
      <point x="434" y="451"/>
      <point x="404" y="343" type="curve"/>
      <point x="316" y="36" type="line"/>
      <point x="310" y="36" type="line"/>
      <point x="218" y="340" type="line"/>
      <point x="186" y="449"/>
      <point x="149" y="575"/>
      <point x="117" y="684" type="curve"/>
      <point x="79" y="684" type="line"/>
      <point x="105" y="601"/>
      <point x="137" y="499"/>
      <point x="160" y="426" type="curve"/>
      <point x="224" y="215" type="line"/>
      <point x="243" y="149"/>
      <point x="266" y="69"/>
    </contour>
    <contour>
      <point x="30" y="338" type="line"/>
      <point x="88" y="339"/>
      <point x="155" y="340"/>
      <point x="190" y="340" type="curve"/>
      <point x="863" y="340" type="line"/>
      <point x="898" y="340"/>
      <point x="965" y="339"/>
      <point x="1023" y="338" type="curve"/>
      <point x="1023" y="370" type="line"/>
      <point x="965" y="369"/>
      <point x="898" y="368"/>
      <point x="863" y="368" type="curve"/>
      <point x="190" y="368" type="line"/>
      <point x="155" y="368"/>
      <point x="88" y="369"/>
      <point x="30" y="370" type="curve"/>
    </contour>
  </outline>
</glyph>
<glyph name="euro" format="2">
  <advance width="700"/>
  <unicode hex="20AC"/>
  <outline>
    <contour>
      <point x="443" y="-9" type="curve" smooth="yes"/>
      <point x="489" y="-9"/>
      <point x="583" y="17"/>
      <point x="642" y="37" type="curve"/>
      <point x="635" y="75" type="line"/>
      <point x="565" y="44"/>
      <point x="472" y="23"/>
      <point x="441" y="23" type="curve"/>
      <point x="243" y="25"/>
      <point x="146" y="166"/>
      <point x="146" y="344" type="curve" smooth="yes"/>
      <point x="146" y="537"/>
      <point x="258" y="662"/>
      <point x="429" y="664" type="curve"/>
      <point x="456" y="664"/>
      <point x="551" y="639"/>
      <point x="642" y="608" type="curve"/>
      <point x="647" y="645" type="line"/>
      <point x="592" y="661"/>
      <point x="475" y="696"/>
      <point x="430" y="696" type="curve" smooth="yes"/>
      <point x="244" y="696"/>
      <point x="114" y="553"/>
      <point x="114" y="345" type="curve" smooth="yes"/>
      <point x="114" y="147"/>
      <point x="233" y="-9"/>
    </contour>
    <contour>
      <point x="31" y="257" type="line"/>
      <point x="89" y="259"/>
      <point x="144" y="259"/>
      <point x="191" y="259" type="curve"/>
      <point x="341" y="259" type="line"/>
      <point x="388" y="259"/>
      <point x="443" y="259"/>
      <point x="501" y="257" type="curve"/>
      <point x="501" y="289" type="line"/>
      <point x="443" y="287"/>
      <point x="388" y="287"/>
      <point x="341" y="287" type="curve"/>
      <point x="191" y="287" type="line"/>
      <point x="144" y="287"/>
      <point x="89" y="287"/>
      <point x="31" y="289" type="curve"/>
    </contour>
    <contour>
      <point x="31" y="387" type="line"/>
      <point x="89" y="389"/>
      <point x="144" y="389"/>
      <point x="191" y="389" type="curve"/>
      <point x="371" y="389" type="line"/>
      <point x="418" y="389"/>
      <point x="473" y="389"/>
      <point x="531" y="387" type="curve"/>
      <point x="531" y="419" type="line"/>
      <point x="473" y="417"/>
      <point x="418" y="417"/>
      <point x="371" y="417" type="curve"/>
      <point x="191" y="417" type="line"/>
      <point x="144" y="417"/>
      <point x="89" y="417"/>
      <point x="31" y="419" type="curve"/>
    </contour>
  </outline>
</glyph>
<glyph name="cedi" format="2">
  <advance width="656"/>
  <unicode hex="20B5"/>
  <outline>
    <contour>
      <point x="354" y="-137" type="curve"/>
      <point x="388" y="-137" type="line"/>
      <point x="387" y="1"/>
      <point x="386" y="154"/>
      <point x="386" y="192" type="curve"/>
      <point x="386" y="474" type="line"/>
      <point x="386" y="512"/>
      <point x="387" y="665"/>
      <point x="388" y="803" type="curve"/>
      <point x="354" y="803" type="line"/>
      <point x="355" y="665"/>
      <point x="356" y="512"/>
      <point x="356" y="474" type="curve"/>
      <point x="356" y="192" type="line"/>
      <point x="356" y="154"/>
      <point x="355" y="1"/>
    </contour>
    <contour>
      <point x="399" y="-9" type="curve" smooth="yes"/>
      <point x="445" y="-9"/>
      <point x="538" y="20"/>
      <point x="597" y="43" type="curve"/>
      <point x="591" y="82" type="line"/>
      <point x="521" y="47"/>
      <point x="428" y="23"/>
      <point x="397" y="23" type="curve"/>
      <point x="198" y="25"/>
      <point x="92" y="166"/>
      <point x="92" y="344" type="curve" smooth="yes"/>
      <point x="92" y="537"/>
      <point x="213" y="662"/>
      <point x="385" y="664" type="curve"/>
      <point x="412" y="664"/>
      <point x="506" y="636"/>
      <point x="597" y="602" type="curve"/>
      <point x="602" y="639" type="line"/>
      <point x="547" y="657"/>
      <point x="431" y="696"/>
      <point x="386" y="696" type="curve" smooth="yes"/>
      <point x="200" y="696"/>
      <point x="60" y="553"/>
      <point x="60" y="345" type="curve" smooth="yes"/>
      <point x="60" y="147"/>
      <point x="189" y="-9"/>
    </contour>
  </outline>
</glyph>
<glyph name="manat" format="2">
  <advance width="773"/>
  <unicode hex="20BC"/>
  <outline>
    <contour>
      <point x="98" y="0" type="curve"/>
      <point x="134" y="0" type="line"/>
      <point x="133" y="78"/>
      <point x="132" y="145"/>
      <point x="131" y="228" type="curve"/>
      <point x="131" y="402"/>
      <point x="200" y="535"/>
      <point x="387" y="538" type="curve"/>
      <point x="570" y="535"/>
      <point x="642" y="413"/>
      <point x="642" y="228" type="curve"/>
      <point x="641" y="145"/>
      <point x="641" y="78"/>
      <point x="640" y="0" type="curve"/>
      <point x="676" y="0" type="line"/>
      <point x="675" y="78"/>
      <point x="674" y="145"/>
      <point x="673" y="228" type="curve"/>
      <point x="673" y="430"/>
      <point x="583" y="570"/>
      <point x="387" y="570" type="curve" smooth="yes"/>
      <point x="194" y="570"/>
      <point x="100" y="432"/>
      <point x="100" y="228" type="curve"/>
      <point x="99" y="145"/>
      <point x="99" y="78"/>
    </contour>
    <contour>
      <point x="370" y="0" type="curve"/>
      <point x="404" y="0" type="line"/>
      <point x="403" y="138"/>
      <point x="402" y="291"/>
      <point x="402" y="329" type="curve"/>
      <point x="402" y="396" type="line"/>
      <point x="402" y="434"/>
      <point x="403" y="587"/>
      <point x="404" y="725" type="curve"/>
      <point x="370" y="725" type="line"/>
      <point x="371" y="587"/>
      <point x="372" y="434"/>
      <point x="372" y="396" type="curve"/>
      <point x="372" y="329" type="line"/>
      <point x="372" y="291"/>
      <point x="371" y="138"/>
    </contour>
  </outline>
</glyph>
<glyph name="ruble" format="2">
  <advance width="605"/>
  <unicode hex="20BD"/>
  <outline>
    <contour>
      <point x="153" y="318" type="line"/>
      <point x="191" y="318"/>
      <point x="256" y="317"/>
      <point x="304" y="317" type="curve"/>
      <point x="499" y="317"/>
      <point x="555" y="407"/>
      <point x="555" y="514" type="curve" smooth="yes"/>
      <point x="555" y="621"/>
      <point x="488" y="685"/>
      <point x="342" y="685" type="curve"/>
      <point x="250" y="684"/>
      <point x="176" y="684"/>
      <point x="125" y="684" type="curve"/>
      <point x="147" y="654" type="line"/>
      <point x="340" y="654" type="line" smooth="yes"/>
      <point x="409" y="654"/>
      <point x="523" y="650"/>
      <point x="523" y="514" type="curve" smooth="yes"/>
      <point x="523" y="386"/>
      <point x="440" y="348"/>
      <point x="303" y="348" type="curve" smooth="yes"/>
      <point x="153" y="348" type="line"/>
    </contour>
    <contour>
      <point x="125" y="0" type="curve"/>
      <point x="161" y="0" type="line"/>
      <point x="160" y="78"/>
      <point x="159" y="145"/>
      <point x="158" y="228" type="curve"/>
      <point x="158" y="453" type="line"/>
      <point x="159" y="537"/>
      <point x="159" y="604"/>
      <point x="160" y="682" type="curve"/>
      <point x="125" y="684" type="line"/>
      <point x="126" y="607"/>
      <point x="126" y="539"/>
      <point x="127" y="456" type="curve"/>
      <point x="127" y="228" type="line"/>
      <point x="126" y="145"/>
      <point x="126" y="78"/>
    </contour>
    <contour>
      <point x="38" y="156" type="line"/>
      <point x="96" y="157"/>
      <point x="163" y="158"/>
      <point x="198" y="158" type="curve"/>
      <point x="228" y="158" type="line"/>
      <point x="263" y="158"/>
      <point x="330" y="157"/>
      <point x="388" y="156" type="curve"/>
      <point x="388" y="188" type="line"/>
      <point x="330" y="187"/>
      <point x="263" y="186"/>
      <point x="228" y="186" type="curve"/>
      <point x="198" y="186" type="line"/>
      <point x="163" y="186"/>
      <point x="96" y="187"/>
      <point x="38" y="188" type="curve"/>
    </contour>
  </outline>
</glyph>
<glyph name="trademark" format="2">
  <advance width="852"/>
  <unicode hex="2122"/>
  <outline>
    <contour>
      <point x="378" y="310" type="curve"/>
      <point x="415" y="310" type="line"/>
      <point x="422" y="376"/>
      <point x="430" y="451"/>
      <point x="437" y="517" type="curve"/>
      <point x="453" y="649" type="line"/>
      <point x="456" y="649" type="line"/>
      <point x="515" y="506" type="line"/>
      <point x="540" y="443"/>
      <point x="567" y="375"/>
      <point x="593" y="310" type="curve"/>
      <point x="621" y="310" type="line"/>
      <point x="647" y="375"/>
      <point x="673" y="441"/>
      <point x="699" y="506" type="curve"/>
      <point x="758" y="649" type="line"/>
      <point x="761" y="649" type="line"/>
      <point x="777" y="517" type="line"/>
      <point x="784" y="451"/>
      <point x="791" y="378"/>
      <point x="798" y="310" type="curve"/>
      <point x="835" y="310" type="line"/>
      <point x="829" y="352"/>
      <point x="822" y="401"/>
      <point x="816" y="443" type="curve"/>
      <point x="800" y="575" type="line"/>
      <point x="796" y="615"/>
      <point x="791" y="664"/>
      <point x="786" y="709" type="curve"/>
      <point x="749" y="709" type="line"/>
      <point x="724" y="646"/>
      <point x="702" y="590"/>
      <point x="680" y="535" type="curve"/>
      <point x="609" y="363" type="line"/>
      <point x="606" y="363" type="line"/>
      <point x="534" y="536" type="line"/>
      <point x="512" y="592"/>
      <point x="489" y="650"/>
      <point x="466" y="709" type="curve"/>
      <point x="428" y="709" type="line"/>
      <point x="423" y="661"/>
      <point x="419" y="622"/>
      <point x="414" y="574" type="curve"/>
      <point x="398" y="445" type="line"/>
      <point x="391" y="397"/>
      <point x="385" y="358"/>
    </contour>
    <contour>
      <point x="162" y="310" type="curve"/>
      <point x="199" y="310" type="line"/>
      <point x="198" y="355"/>
      <point x="197" y="394"/>
      <point x="196" y="443" type="curve"/>
      <point x="196" y="572" type="line"/>
      <point x="197" y="621"/>
      <point x="198" y="660"/>
      <point x="199" y="705" type="curve"/>
      <point x="199" y="709" type="line"/>
      <point x="162" y="709" type="line"/>
      <point x="162" y="705" type="line"/>
      <point x="163" y="660"/>
      <point x="164" y="621"/>
      <point x="165" y="572" type="curve"/>
      <point x="165" y="443" type="line"/>
      <point x="164" y="394"/>
      <point x="163" y="355"/>
    </contour>
    <contour>
      <point x="20" y="677" type="line"/>
      <point x="52" y="678"/>
      <point x="86" y="679"/>
      <point x="133" y="680" type="curve"/>
      <point x="170" y="680" type="line"/>
      <point x="170" y="709" type="line"/>
      <point x="20" y="709" type="line"/>
    </contour>
    <contour>
      <point x="191" y="680" type="line"/>
      <point x="227" y="680" type="line"/>
      <point x="274" y="679"/>
      <point x="308" y="678"/>
      <point x="340" y="677" type="curve"/>
      <point x="340" y="709" type="line"/>
      <point x="191" y="709" type="line"/>
    </contour>
  </outline>
</glyph>
<glyph name="Ohm" format="2">
  <advance width="795"/>
  <unicode hex="2126"/>
  <outline>
    <contour>
      <point x="40" y="0" type="line"/>
      <point x="319" y="0" type="line"/>
      <point x="318" y="67"/>
      <point x="318" y="123"/>
      <point x="317" y="195" type="curve"/>
      <point x="179" y="272"/>
      <point x="109" y="351"/>
      <point x="109" y="454" type="curve" smooth="yes"/>
      <point x="109" y="589"/>
      <point x="201" y="688"/>
      <point x="399" y="692" type="curve"/>
      <point x="590" y="688"/>
      <point x="686" y="597"/>
      <point x="686" y="454" type="curve" smooth="yes"/>
      <point x="686" y="352"/>
      <point x="617" y="272"/>
      <point x="478" y="195" type="curve"/>
      <point x="477" y="123"/>
      <point x="477" y="67"/>
      <point x="476" y="0" type="curve"/>
      <point x="755" y="0" type="line"/>
      <point x="755" y="35" type="line"/>
      <point x="703" y="34"/>
      <point x="622" y="32"/>
      <point x="570" y="31" type="curve"/>
      <point x="494" y="31" type="line"/>
      <point x="512" y="16" type="line"/>
      <point x="511" y="90"/>
      <point x="511" y="132"/>
      <point x="510" y="195" type="curve"/>
      <point x="484" y="160" type="line"/>
      <point x="624" y="242"/>
      <point x="719" y="324"/>
      <point x="719" y="453" type="curve" smooth="yes"/>
      <point x="719" y="608"/>
      <point x="603" y="725"/>
      <point x="399" y="725" type="curve" smooth="yes"/>
      <point x="198" y="725"/>
      <point x="76" y="611"/>
      <point x="76" y="453" type="curve" smooth="yes"/>
      <point x="76" y="332"/>
      <point x="164" y="244"/>
      <point x="311" y="160" type="curve"/>
      <point x="285" y="195" type="line"/>
      <point x="284" y="132"/>
      <point x="284" y="90"/>
      <point x="283" y="16" type="curve"/>
      <point x="301" y="31" type="line"/>
      <point x="225" y="31" type="line"/>
      <point x="173" y="32"/>
      <point x="92" y="34"/>
      <point x="40" y="35" type="curve"/>
    </contour>
  </outline>
</glyph>
<glyph name="increment" format="2">
  <advance width="676"/>
  <unicode hex="2206"/>
  <outline>
    <contour>
      <point x="40" y="0" type="line"/>
      <point x="76" y="0" type="line"/>
      <point x="76" y="22" type="line"/>
      <point x="108" y="105"/>
      <point x="144" y="195"/>
      <point x="175" y="275" type="curve"/>
      <point x="337" y="677" type="line"/>
      <point x="343" y="677" type="line"/>
      <point x="504" y="272" type="line"/>
      <point x="533" y="196"/>
      <point x="568" y="105"/>
      <point x="600" y="22" type="curve"/>
      <point x="600" y="0" type="line"/>
      <point x="636" y="0" type="line"/>
      <point x="636" y="29" type="line"/>
      <point x="609" y="96"/>
      <point x="579" y="171"/>
      <point x="551" y="240" type="curve"/>
      <point x="453" y="487" type="line"/>
      <point x="420" y="574"/>
      <point x="395" y="639"/>
      <point x="367" y="713" type="curve"/>
      <point x="313" y="713" type="line"/>
      <point x="286" y="643"/>
      <point x="259" y="573"/>
      <point x="226" y="487" type="curve"/>
      <point x="127" y="241" type="line"/>
      <point x="99" y="173"/>
      <point x="68" y="97"/>
      <point x="40" y="28" type="curve"/>
    </contour>
    <contour>
      <point x="56" y="0" type="line"/>
      <point x="623" y="0" type="line"/>
      <point x="623" y="31" type="line"/>
      <point x="56" y="31" type="line"/>
    </contour>
  </outline>
</glyph>
<glyph name="product" format="2">
  <advance width="778"/>
  <unicode hex="220F"/>
  <outline>
    <contour>
      <point x="584" y="-192" type="curve"/>
      <point x="621" y="-192" type="line"/>
      <point x="620" y="-91"/>
      <point x="619" y="-3"/>
      <point x="618" y="106" type="curve"/>
      <point x="618" y="412" type="line"/>
      <point x="619" y="521"/>
      <point x="620" y="608"/>
      <point x="621" y="709" type="curve"/>
      <point x="621" y="713" type="line"/>
      <point x="583" y="713" type="line"/>
      <point x="583" y="709" type="line"/>
      <point x="584" y="608"/>
      <point x="585" y="521"/>
      <point x="586" y="412" type="curve"/>
      <point x="586" y="106" type="line"/>
      <point x="585" y="-3"/>
      <point x="585" y="-91"/>
    </contour>
    <contour>
      <point x="159" y="-192" type="curve"/>
      <point x="196" y="-192" type="line"/>
      <point x="195" y="-91"/>
      <point x="194" y="-3"/>
      <point x="193" y="106" type="curve"/>
      <point x="193" y="412" type="line"/>
      <point x="194" y="521"/>
      <point x="195" y="608"/>
      <point x="196" y="709" type="curve"/>
      <point x="196" y="713" type="line"/>
      <point x="158" y="713" type="line"/>
      <point x="158" y="709" type="line"/>
      <point x="159" y="608"/>
      <point x="160" y="521"/>
      <point x="161" y="412" type="curve"/>
      <point x="161" y="106" type="line"/>
      <point x="160" y="-3"/>
      <point x="160" y="-91"/>
    </contour>
    <contour>
      <point x="35" y="678" type="line"/>
      <point x="84" y="679"/>
      <point x="182" y="681"/>
      <point x="241" y="682" type="curve"/>
      <point x="537" y="682" type="line"/>
      <point x="595" y="681"/>
      <point x="694" y="679"/>
      <point x="743" y="678" type="curve"/>
      <point x="743" y="713" type="line"/>
      <point x="35" y="713" type="line"/>
    </contour>
  </outline>
</glyph>
<glyph name="summation" format="2">
  <advance width="614"/>
  <unicode hex="2211"/>
  <outline>
    <contour>
      <point x="54" y="-192" type="line"/>
      <point x="579" y="-192" type="line"/>
      <point x="579" y="-156" type="line"/>
      <point x="491" y="-157"/>
      <point x="347" y="-159"/>
      <point x="249" y="-161" type="curve"/>
      <point x="65" y="-161" type="line"/>
      <point x="79" y="-186" type="line"/>
      <point x="202" y="-18" type="line"/>
      <point x="274" y="79"/>
      <point x="351" y="182"/>
      <point x="423" y="279" type="curve"/>
      <point x="353" y="365"/>
      <point x="276" y="460"/>
      <point x="205" y="547" type="curve"/>
      <point x="83" y="700" type="line"/>
      <point x="60" y="682" type="line"/>
      <point x="263" y="682" type="line"/>
      <point x="355" y="681"/>
      <point x="458" y="679"/>
      <point x="570" y="678" type="curve"/>
      <point x="570" y="713" type="line"/>
      <point x="55" y="713" type="line"/>
      <point x="55" y="682" type="line"/>
      <point x="123" y="597"/>
      <point x="189" y="515"/>
      <point x="255" y="433" type="curve"/>
      <point x="386" y="269" type="line"/>
      <point x="386" y="288" type="line"/>
      <point x="272" y="132" type="line"/>
      <point x="206" y="42"/>
      <point x="114" y="-83"/>
      <point x="54" y="-164" type="curve"/>
    </contour>
  </outline>
</glyph>
<glyph name="minus" format="2">
  <advance width="560"/>
  <unicode hex="2212"/>
  <outline>
    <contour>
      <point x="70" y="278" type="line"/>
      <point x="128" y="279"/>
      <point x="195" y="280"/>
      <point x="230" y="280" type="curve"/>
      <point x="330" y="280" type="line"/>
      <point x="365" y="280"/>
      <point x="432" y="279"/>
      <point x="490" y="278" type="curve"/>
      <point x="490" y="312" type="line"/>
      <point x="432" y="311"/>
      <point x="365" y="310"/>
      <point x="330" y="310" type="curve"/>
      <point x="230" y="310" type="line"/>
      <point x="195" y="310"/>
      <point x="128" y="311"/>
      <point x="70" y="312" type="curve"/>
    </contour>
  </outline>
</glyph>
<glyph name="divisionslash" format="2">
  <advance width="362"/>
  <unicode hex="2215"/>
  <outline>
    <contour>
      <point x="38" y="0" type="curve"/>
      <point x="74" y="0" type="line"/>
      <point x="100" y="75"/>
      <point x="120" y="135"/>
      <point x="152" y="228" type="curve"/>
      <point x="238" y="474" type="line"/>
      <point x="273" y="571"/>
      <point x="295" y="632"/>
      <point x="324" y="713" type="curve"/>
      <point x="288" y="713" type="line"/>
      <point x="262" y="637"/>
      <point x="239" y="570"/>
      <point x="206" y="474" type="curve"/>
      <point x="120" y="228" type="line"/>
      <point x="87" y="136"/>
      <point x="64" y="73"/>
    </contour>
  </outline>
</glyph>
<glyph name="radical" format="2">
  <advance width="561"/>
  <unicode hex="221A"/>
  <outline>
    <contour>
      <point x="328" y="0" type="curve"/>
      <point x="368" y="0" type="line"/>
      <point x="385" y="72"/>
      <point x="400" y="135"/>
      <point x="422" y="228" type="curve"/>
      <point x="508" y="578" type="line"/>
      <point x="533" y="675"/>
      <point x="550" y="741"/>
      <point x="570" y="818" type="curve"/>
      <point x="534" y="818" type="line"/>
      <point x="516" y="742"/>
      <point x="500" y="675"/>
      <point x="477" y="578" type="curve"/>
      <point x="347" y="50" type="line"/>
      <point x="341" y="50" type="line"/>
      <point x="271" y="205" type="line"/>
      <point x="245" y="264"/>
      <point x="220" y="321"/>
      <point x="194" y="380" type="curve"/>
      <point x="158" y="380" type="line"/>
      <point x="227" y="228" type="line"/>
      <point x="268" y="135"/>
      <point x="296" y="72"/>
    </contour>
    <contour>
      <point x="27" y="348" type="line"/>
      <point x="85" y="349"/>
      <point x="152" y="350"/>
      <point x="187" y="350" type="curve"/>
      <point x="187" y="380" type="line"/>
      <point x="152" y="380"/>
      <point x="85" y="381"/>
      <point x="27" y="382" type="curve"/>
    </contour>
  </outline>
</glyph>
<glyph name="approxequal" format="2">
  <advance width="560"/>
  <unicode hex="2248"/>
  <outline>
    <contour>
      <point x="391" y="325" type="curve" smooth="yes"/>
      <point x="446" y="325"/>
      <point x="490" y="364"/>
      <point x="490" y="436" type="curve"/>
      <point x="461" y="436" type="line"/>
      <point x="458" y="380"/>
      <point x="431" y="358"/>
      <point x="389" y="356" type="curve"/>
      <point x="318" y="358"/>
      <point x="250" y="449"/>
      <point x="170" y="449" type="curve" smooth="yes"/>
      <point x="115" y="449"/>
      <point x="70" y="410"/>
      <point x="70" y="338" type="curve"/>
      <point x="99" y="338" type="line"/>
      <point x="102" y="394"/>
      <point x="130" y="416"/>
      <point x="172" y="418" type="curve"/>
      <point x="243" y="416"/>
      <point x="311" y="325"/>
    </contour>
    <contour>
      <point x="390" y="123" type="curve" smooth="yes"/>
      <point x="445" y="123"/>
      <point x="489" y="162"/>
      <point x="489" y="234" type="curve"/>
      <point x="460" y="234" type="line"/>
      <point x="457" y="178"/>
      <point x="430" y="156"/>
      <point x="388" y="154" type="curve"/>
      <point x="317" y="156"/>
      <point x="249" y="247"/>
      <point x="169" y="247" type="curve" smooth="yes"/>
      <point x="114" y="247"/>
      <point x="69" y="208"/>
      <point x="69" y="136" type="curve"/>
      <point x="98" y="136" type="line"/>
      <point x="101" y="192"/>
      <point x="129" y="214"/>
      <point x="171" y="216" type="curve"/>
      <point x="242" y="214"/>
      <point x="310" y="123"/>
    </contour>
  </outline>
</glyph>
<glyph name="lessequal" format="2">
  <advance width="560"/>
  <unicode hex="2264"/>
  <outline>
    <contour>
      <point x="490" y="160" type="curve"/>
      <point x="490" y="199" type="line"/>
      <point x="411" y="233"/>
      <point x="324" y="271"/>
      <point x="243" y="306" type="curve"/>
      <point x="112" y="365" type="line"/>
      <point x="112" y="371" type="line"/>
      <point x="243" y="430" type="line"/>
      <point x="324" y="465"/>
      <point x="411" y="503"/>
      <point x="490" y="537" type="curve"/>
      <point x="490" y="576" type="line"/>
      <point x="432" y="549"/>
      <point x="374" y="522"/>
      <point x="329" y="501" type="curve"/>
      <point x="229" y="456" type="line"/>
      <point x="181" y="435"/>
      <point x="127" y="411"/>
      <point x="70" y="386" type="curve"/>
      <point x="70" y="350" type="line"/>
      <point x="127" y="326"/>
      <point x="183" y="301"/>
      <point x="229" y="280" type="curve"/>
      <point x="329" y="235" type="line"/>
      <point x="376" y="213"/>
      <point x="434" y="186"/>
    </contour>
    <contour>
      <point x="70" y="-2" type="line"/>
      <point x="128" y="-1"/>
      <point x="195" y="0"/>
      <point x="230" y="0" type="curve"/>
      <point x="330" y="0" type="line"/>
      <point x="365" y="0"/>
      <point x="432" y="-1"/>
      <point x="490" y="-2" type="curve"/>
      <point x="490" y="32" type="line"/>
      <point x="432" y="31"/>
      <point x="365" y="30"/>
      <point x="330" y="30" type="curve"/>
      <point x="230" y="30" type="line"/>
      <point x="195" y="30"/>
      <point x="128" y="31"/>
      <point x="70" y="32" type="curve"/>
    </contour>
  </outline>
</glyph>
<glyph name="_strokeshortcomb.Eth" format="2">
  <advance width="739"/>
  <anchor x="370" y="357" name="_center"/>
  <outline>
    <contour>
      <point x="-10" y="329" type="line"/>
      <point x="51" y="330"/>
      <point x="98" y="330"/>
      <point x="157" y="331" type="curve"/>
      <point x="203" y="331" type="line"/>
      <point x="262" y="330"/>
      <point x="309" y="330"/>
      <point x="370" y="329" type="curve"/>
      <point x="370" y="363" type="line"/>
      <point x="309" y="362"/>
      <point x="262" y="362"/>
      <point x="203" y="361" type="curve"/>
      <point x="157" y="361" type="line"/>
      <point x="98" y="362"/>
      <point x="51" y="362"/>
      <point x="-10" y="363" type="curve"/>
    </contour>
  </outline>
</glyph>
<glyph name="_strokeshortcomb.Tbar" format="2">
  <advance width="739"/>
  <anchor x="370" y="357" name="_center"/>
  <outline>
    <contour>
      <point x="180" y="329" type="line"/>
      <point x="241" y="330"/>
      <point x="288" y="330"/>
      <point x="347" y="331" type="curve"/>
      <point x="393" y="331" type="line"/>
      <point x="452" y="330"/>
      <point x="499" y="330"/>
      <point x="560" y="329" type="curve"/>
      <point x="560" y="363" type="line"/>
      <point x="499" y="362"/>
      <point x="452" y="362"/>
      <point x="393" y="361" type="curve"/>
      <point x="347" y="361" type="line"/>
      <point x="288" y="362"/>
      <point x="241" y="362"/>
      <point x="180" y="363" type="curve"/>
    </contour>
  </outline>
</glyph>
<glyph name="brevecomb.case" format="2">
  <anchor x="300" y="494" name="_top"/>
  <anchor x="299" y="683" name="top"/>
  <outline>
    <contour>
      <point x="298" y="575" type="curve" smooth="yes"/>
      <point x="390" y="575"/>
      <point x="441" y="638"/>
      <point x="441" y="748" type="curve"/>
      <point x="412" y="748" type="line"/>
      <point x="412" y="646"/>
      <point x="371" y="608"/>
      <point x="298" y="606" type="curve"/>
      <point x="226" y="608"/>
      <point x="185" y="646"/>
      <point x="185" y="749" type="curve"/>
      <point x="156" y="748" type="line"/>
      <point x="156" y="638"/>
      <point x="208" y="575"/>
    </contour>
  </outline>
</glyph>
<glyph name="caroncomb.alt" format="2">
  <anchor x="300" y="494" name="_topright"/>
  <outline>
    <contour>
      <point x="336" y="543" type="curve"/>
      <point x="363" y="544" type="line"/>
      <point x="375" y="589"/>
      <point x="405" y="692"/>
      <point x="405" y="733" type="curve" smooth="yes"/>
      <point x="405" y="755"/>
      <point x="401" y="765"/>
      <point x="386" y="766" type="curve"/>
      <point x="369" y="765" type="line"/>
      <point x="370" y="743"/>
      <point x="371" y="721"/>
      <point x="371" y="698" type="curve"/>
      <point x="363" y="661"/>
      <point x="348" y="595"/>
    </contour>
  </outline>
</glyph>
<glyph name="circumflexcomb_acutecomb.case" format="2">
  <anchor x="300" y="494" name="_top"/>
  <outline>
    <contour>
      <point x="400" y="710" type="curve"/>
      <point x="433" y="711" type="line"/>
      <point x="486" y="769"/>
      <point x="538" y="826"/>
      <point x="588" y="885" type="curve"/>
      <point x="542" y="885" type="line"/>
      <point x="494" y="827"/>
      <point x="448" y="769"/>
    </contour>
    <contour>
      <point x="133" y="577" type="curve"/>
      <point x="166" y="577" type="line"/>
      <point x="219" y="635"/>
      <point x="269" y="692"/>
      <point x="319" y="750" type="curve"/>
      <point x="275" y="750" type="line"/>
      <point x="228" y="692"/>
      <point x="181" y="635"/>
    </contour>
    <contour>
      <point x="431" y="575" type="curve"/>
      <point x="464" y="576" type="line"/>
      <point x="416" y="634"/>
      <point x="369" y="693"/>
      <point x="322" y="750" type="curve"/>
      <point x="278" y="750" type="line"/>
      <point x="328" y="691"/>
      <point x="378" y="634"/>
    </contour>
  </outline>
</glyph>
<glyph name="circumflexcomb_acutecomb" format="2">
  <anchor x="298.5" y="494" name="_top"/>
  <outline>
    <contour>
      <point x="400" y="740" type="curve"/>
      <point x="433" y="741" type="line"/>
      <point x="486" y="805"/>
      <point x="538" y="868"/>
      <point x="588" y="933" type="curve"/>
      <point x="542" y="932" type="line"/>
      <point x="495" y="869"/>
      <point x="448" y="804"/>
    </contour>
    <contour>
      <point x="133" y="587" type="curve"/>
      <point x="166" y="587" type="line"/>
      <point x="219" y="651"/>
      <point x="269" y="714"/>
      <point x="319" y="777" type="curve"/>
      <point x="275" y="777" type="line"/>
      <point x="228" y="714"/>
      <point x="181" y="651"/>
    </contour>
    <contour>
      <point x="431" y="585" type="curve"/>
      <point x="464" y="586" type="line"/>
      <point x="416" y="650"/>
      <point x="369" y="715"/>
      <point x="322" y="777" type="curve"/>
      <point x="278" y="777" type="line"/>
      <point x="328" y="713"/>
      <point x="378" y="650"/>
    </contour>
  </outline>
</glyph>
<glyph name="five.dnom" format="2">
  <advance width="407"/>
  <outline>
    <contour>
      <point x="195" y="-6" type="curve" smooth="yes"/>
      <point x="302" y="-6"/>
      <point x="362" y="55"/>
      <point x="362" y="146" type="curve" smooth="yes"/>
      <point x="362" y="244"/>
      <point x="291" y="293"/>
      <point x="208" y="293" type="curve" smooth="yes"/>
      <point x="170" y="293"/>
      <point x="133" y="277"/>
      <point x="103" y="264" type="curve"/>
      <point x="99" y="264" type="line"/>
      <point x="99" y="299" type="line"/>
      <point x="100" y="354"/>
      <point x="100" y="394"/>
      <point x="101" y="442" type="curve"/>
      <point x="88" y="430" type="line"/>
      <point x="160" y="430" type="line"/>
      <point x="215" y="430"/>
      <point x="274" y="429"/>
      <point x="332" y="428" type="curve"/>
      <point x="332" y="459" type="line"/>
      <point x="68" y="459" type="line"/>
      <point x="69" y="406"/>
      <point x="69" y="367"/>
      <point x="70" y="297" type="curve"/>
      <point x="70" y="228" type="line"/>
      <point x="85" y="227" type="line"/>
      <point x="126" y="250"/>
      <point x="173" y="263"/>
      <point x="202" y="263" type="curve"/>
      <point x="275" y="262"/>
      <point x="331" y="232"/>
      <point x="331" y="146" type="curve" smooth="yes"/>
      <point x="331" y="69"/>
      <point x="287" y="25"/>
      <point x="194" y="24" type="curve"/>
      <point x="159" y="24"/>
      <point x="105" y="43"/>
      <point x="43" y="68" type="curve"/>
      <point x="38" y="33" type="line"/>
      <point x="96" y="14"/>
      <point x="160" y="-6"/>
    </contour>
  </outline>
</glyph>
<glyph name="four.dnom" format="2">
  <advance width="421"/>
  <outline>
    <contour>
      <point x="267" y="0" type="curve"/>
      <point x="300" y="0" type="line"/>
      <point x="299" y="41"/>
      <point x="299" y="73"/>
      <point x="298" y="124" type="curve"/>
      <point x="298" y="297" type="line"/>
      <point x="299" y="350"/>
      <point x="299" y="403"/>
      <point x="300" y="459" type="curve"/>
      <point x="264" y="459" type="line"/>
      <point x="242" y="428"/>
      <point x="219" y="396"/>
      <point x="197" y="365" type="curve"/>
      <point x="134" y="279" type="line"/>
      <point x="101" y="235"/>
      <point x="53" y="171"/>
      <point x="27" y="137" type="curve"/>
      <point x="27" y="111" type="line"/>
      <point x="285" y="111" type="line"/>
      <point x="319" y="111"/>
      <point x="368" y="109"/>
      <point x="399" y="109" type="curve"/>
      <point x="399" y="142" type="line"/>
      <point x="368" y="142"/>
      <point x="319" y="140"/>
      <point x="285" y="140" type="curve"/>
      <point x="276" y="140" type="line"/>
      <point x="54" y="140" type="line"/>
      <point x="59" y="127" type="line"/>
      <point x="82" y="159"/>
      <point x="101" y="187"/>
      <point x="126" y="222" type="curve"/>
      <point x="214" y="340" type="line"/>
      <point x="242" y="377"/>
      <point x="269" y="413"/>
      <point x="294" y="447" type="curve"/>
      <point x="267" y="440" type="line"/>
      <point x="268" y="392"/>
      <point x="269" y="343"/>
      <point x="269" y="295" type="curve"/>
      <point x="269" y="132" type="line"/>
      <point x="269" y="124" type="line"/>
      <point x="268" y="73"/>
      <point x="268" y="41"/>
    </contour>
  </outline>
</glyph>
<glyph name="guarani.BRACKET.140" format="2">
  <advance width="706"/>
  <outline>
    <contour>
      <point x="417" y="-9" type="curve" smooth="yes"/>
      <point x="466" y="-9"/>
      <point x="567" y="16"/>
      <point x="630" y="36" type="curve"/>
      <point x="624" y="73" type="line"/>
      <point x="549" y="43"/>
      <point x="450" y="23"/>
      <point x="417" y="23" type="curve"/>
      <point x="191" y="25"/>
      <point x="92" y="163"/>
      <point x="92" y="345" type="curve" smooth="yes"/>
      <point x="92" y="538"/>
      <point x="212" y="662"/>
      <point x="391" y="664" type="curve"/>
      <point x="419" y="664"/>
      <point x="517" y="637"/>
      <point x="611" y="604" type="curve"/>
      <point x="616" y="641" type="line"/>
      <point x="559" y="658"/>
      <point x="438" y="696"/>
      <point x="391" y="696" type="curve" smooth="yes"/>
      <point x="195" y="696"/>
      <point x="60" y="549"/>
      <point x="60" y="345" type="curve" smooth="yes"/>
      <point x="60" y="147"/>
      <point x="181" y="-9"/>
    </contour>
    <contour>
      <point x="595" y="35" type="curve"/>
      <point x="630" y="36" type="line"/>
      <point x="629" y="101"/>
      <point x="629" y="136"/>
      <point x="628" y="192" type="curve"/>
      <point x="629" y="245"/>
      <point x="630" y="287"/>
      <point x="631" y="335" type="curve"/>
      <point x="595" y="335" type="line"/>
      <point x="596" y="287"/>
      <point x="596" y="245"/>
      <point x="597" y="192" type="curve"/>
      <point x="596" y="134"/>
      <point x="596" y="101"/>
    </contour>
    <contour>
      <point x="357" y="-137" type="curve"/>
      <point x="391" y="-137" type="line"/>
      <point x="391" y="-88"/>
      <point x="390" y="-38"/>
      <point x="390" y="9" type="curve"/>
      <point x="358" y="9" type="line"/>
      <point x="358" y="-38"/>
      <point x="357" y="-88"/>
    </contour>
    <contour>
      <point x="358" y="675" type="curve"/>
      <point x="390" y="675" type="line"/>
      <point x="390" y="717"/>
      <point x="391" y="761"/>
      <point x="391" y="803" type="curve"/>
      <point x="357" y="803" type="line"/>
      <point x="357" y="761"/>
      <point x="358" y="717"/>
    </contour>
  </outline>
</glyph>
<glyph name="hungarumlautcomb.case" format="2">
  <anchor x="300" y="494" name="_top"/>
  <anchor x="299" y="716" name="top"/>
  <outline>
    <contour>
      <point x="344" y="576" type="curve"/>
      <point x="377" y="577" type="line"/>
      <point x="430" y="635"/>
      <point x="482" y="692"/>
      <point x="532" y="751" type="curve"/>
      <point x="486" y="751" type="line"/>
      <point x="439" y="693"/>
      <point x="392" y="634"/>
    </contour>
    <contour>
      <point x="180" y="576" type="curve"/>
      <point x="211" y="577" type="line"/>
      <point x="258" y="635"/>
      <point x="303" y="692"/>
      <point x="346" y="751" type="curve"/>
      <point x="302" y="751" type="line"/>
      <point x="262" y="692"/>
      <point x="222" y="634"/>
    </contour>
  </outline>
</glyph>
<glyph name="one.dnom" format="2">
  <advance width="303"/>
  <outline>
    <contour>
      <point x="39" y="344" type="line"/>
      <point x="96" y="376"/>
      <point x="147" y="404"/>
      <point x="192" y="429" type="curve"/>
      <point x="192" y="460" type="line"/>
      <point x="137" y="431"/>
      <point x="83" y="402"/>
      <point x="30" y="374" type="curve"/>
    </contour>
    <contour>
      <point x="177" y="0" type="curve"/>
      <point x="210" y="0" type="line"/>
      <point x="209" y="50"/>
      <point x="209" y="93"/>
      <point x="208" y="148" type="curve"/>
      <point x="208" y="300" type="line"/>
      <point x="209" y="356"/>
      <point x="209" y="410"/>
      <point x="210" y="459" type="curve"/>
      <point x="192" y="460" type="line"/>
      <point x="178" y="444" type="line"/>
      <point x="178" y="395"/>
      <point x="179" y="346"/>
      <point x="179" y="297" type="curve"/>
      <point x="179" y="148" type="line"/>
      <point x="178" y="93"/>
      <point x="178" y="50"/>
    </contour>
  </outline>
</glyph>
<glyph name="peso.BRACKET.140" format="2">
  <advance width="701"/>
  <outline>
    <contour>
      <point x="163" y="298" type="line"/>
      <point x="201" y="298"/>
      <point x="266" y="297"/>
      <point x="314" y="297" type="curve"/>
      <point x="509" y="297"/>
      <point x="565" y="387"/>
      <point x="565" y="504" type="curve" smooth="yes"/>
      <point x="565" y="621"/>
      <point x="498" y="685"/>
      <point x="352" y="685" type="curve"/>
      <point x="260" y="684"/>
      <point x="186" y="684"/>
      <point x="135" y="684" type="curve"/>
      <point x="157" y="654" type="line"/>
      <point x="350" y="654" type="line" smooth="yes"/>
      <point x="419" y="654"/>
      <point x="533" y="650"/>
      <point x="533" y="504" type="curve" smooth="yes"/>
      <point x="533" y="366"/>
      <point x="450" y="328"/>
      <point x="313" y="328" type="curve" smooth="yes"/>
      <point x="163" y="328" type="line"/>
    </contour>
    <contour>
      <point x="135" y="0" type="curve"/>
      <point x="171" y="0" type="line"/>
      <point x="170" y="78"/>
      <point x="169" y="145"/>
      <point x="168" y="228" type="curve"/>
      <point x="168" y="453" type="line"/>
      <point x="169" y="537"/>
      <point x="169" y="604"/>
      <point x="170" y="682" type="curve"/>
      <point x="135" y="684" type="line"/>
      <point x="136" y="607"/>
      <point x="136" y="539"/>
      <point x="137" y="456" type="curve"/>
      <point x="137" y="228" type="line"/>
      <point x="136" y="145"/>
      <point x="136" y="78"/>
    </contour>
    <contour>
      <point x="38" y="428" type="line"/>
      <point x="76" y="429"/>
      <point x="117" y="429"/>
      <point x="151" y="430" type="curve"/>
      <point x="151" y="458" type="line"/>
      <point x="117" y="459"/>
      <point x="76" y="459"/>
      <point x="38" y="460" type="curve"/>
    </contour>
    <contour>
      <point x="38" y="528" type="line"/>
      <point x="76" y="529"/>
      <point x="117" y="529"/>
      <point x="151" y="530" type="curve"/>
      <point x="151" y="558" type="line"/>
      <point x="117" y="559"/>
      <point x="76" y="559"/>
      <point x="38" y="560" type="curve"/>
    </contour>
    <contour>
      <point x="550" y="430" type="line"/>
      <point x="584" y="429"/>
      <point x="625" y="429"/>
      <point x="663" y="428" type="curve"/>
      <point x="663" y="460" type="line"/>
      <point x="625" y="459"/>
      <point x="584" y="459"/>
      <point x="550" y="458" type="curve"/>
    </contour>
    <contour>
      <point x="550" y="530" type="line"/>
      <point x="584" y="529"/>
      <point x="625" y="529"/>
      <point x="663" y="528" type="curve"/>
      <point x="663" y="560" type="line"/>
      <point x="625" y="559"/>
      <point x="584" y="559"/>
      <point x="550" y="558" type="curve"/>
    </contour>
  </outline>
</glyph>
<glyph name="tildecomb.case" format="2">
  <anchor x="300" y="494" name="_top"/>
  <anchor x="300" y="665" name="top"/>
  <outline>
    <contour>
      <point x="381" y="578" type="curve" smooth="yes"/>
      <point x="433" y="578"/>
      <point x="464" y="617"/>
      <point x="464" y="689" type="curve"/>
      <point x="436" y="689" type="line"/>
      <point x="432" y="633"/>
      <point x="419" y="611"/>
      <point x="382" y="609" type="curve"/>
      <point x="322" y="611"/>
      <point x="291" y="702"/>
      <point x="219" y="702" type="curve" smooth="yes"/>
      <point x="167" y="702"/>
      <point x="136" y="663"/>
      <point x="136" y="591" type="curve"/>
      <point x="164" y="591" type="line"/>
      <point x="167" y="647"/>
      <point x="182" y="669"/>
      <point x="218" y="671" type="curve"/>
      <point x="278" y="669"/>
      <point x="309" y="578"/>
    </contour>
  </outline>
</glyph>
<glyph name="two.dnom" format="2">
  <advance width="389"/>
  <outline>
    <contour>
      <point x="37" y="0" type="line"/>
      <point x="342" y="0" type="line"/>
      <point x="342" y="31" type="line"/>
      <point x="279" y="30"/>
      <point x="214" y="29"/>
      <point x="150" y="29" type="curve"/>
      <point x="69" y="29" type="line"/>
      <point x="77" y="21" type="line"/>
      <point x="160" y="91" type="line"/>
      <point x="272" y="185"/>
      <point x="331" y="262"/>
      <point x="331" y="339" type="curve" smooth="yes"/>
      <point x="331" y="417"/>
      <point x="279" y="467"/>
      <point x="188" y="467" type="curve" smooth="yes"/>
      <point x="156" y="467"/>
      <point x="73" y="440"/>
      <point x="35" y="427" type="curve"/>
      <point x="41" y="392" type="line"/>
      <point x="103" y="417"/>
      <point x="168" y="437"/>
      <point x="186" y="437" type="curve"/>
      <point x="265" y="436"/>
      <point x="300" y="403"/>
      <point x="300" y="337" type="curve" smooth="yes"/>
      <point x="300" y="262"/>
      <point x="235" y="192"/>
      <point x="128" y="101" type="curve"/>
      <point x="96" y="75"/>
      <point x="66" y="50"/>
      <point x="37" y="26" type="curve"/>
    </contour>
  </outline>
</glyph>
